<svg width="20" height="21" viewBox="0 0 20 21" fill="none" xmlns="http://www.w3.org/2000/svg">
<g clip-path="url(#clip0_16_330)">
<path d="M10.625 3.48876C11.4425 2.62751 12.8525 2.38126 14.515 2.54876C16.0575 2.70376 17.6438 3.20251 18.75 3.66501V16.0688C17.6025 15.6313 16.1163 15.2038 14.6413 15.0563C13.2738 14.9175 11.7938 15.0075 10.625 15.6713V3.48876ZM10 2.35876C8.76875 1.30001 6.98375 1.14251 5.35875 1.30501C3.46625 1.49626 1.55625 2.14501 0.36625 2.68626C0.257061 2.73592 0.164469 2.81595 0.0995263 2.9168C0.0345834 3.01765 3.32143e-05 3.13506 0 3.25501L0 17.005C2.89525e-05 17.1096 0.0262964 17.2125 0.0763964 17.3043C0.126496 17.3961 0.198827 17.4738 0.286764 17.5304C0.3747 17.587 0.475431 17.6206 0.579729 17.6282C0.684028 17.6358 0.78856 17.6171 0.88375 17.5738C1.98625 17.0738 3.7625 16.4725 5.48375 16.2988C7.245 16.1213 8.72125 16.4075 9.5125 17.395C9.57106 17.468 9.64527 17.5269 9.72965 17.5674C9.81402 17.6079 9.90642 17.6289 10 17.6289C10.0936 17.6289 10.186 17.6079 10.2704 17.5674C10.3547 17.5269 10.4289 17.468 10.4875 17.395C11.2788 16.4075 12.755 16.1213 14.515 16.2988C16.2375 16.4725 18.015 17.0738 19.1163 17.5738C19.2114 17.6171 19.316 17.6358 19.4203 17.6282C19.5246 17.6206 19.6253 17.587 19.7132 17.5304C19.8012 17.4738 19.8735 17.3961 19.9236 17.3043C19.9737 17.2125 20 17.1096 20 17.005V3.25501C20 3.13506 19.9654 3.01765 19.9005 2.9168C19.8355 2.81595 19.7429 2.73592 19.6337 2.68626C18.4437 2.14501 16.5338 1.49626 14.6413 1.30501C13.0163 1.14126 11.2313 1.30001 10 2.35876Z" fill="white"/>
</g>
<defs>
<clipPath id="clip0_16_330">
<rect width="20" height="20" fill="white" transform="translate(0 0.130005)"/>
</clipPath>
</defs>
</svg>
