<?xml version="1.0" encoding="UTF-8"?>
<svg id="_Слой_1" data-name="Слой 1" xmlns="http://www.w3.org/2000/svg" xmlns:xlink="http://www.w3.org/1999/xlink" viewBox="0 0 20 20">
  <defs>
    <style>
      .cls-1 {
        fill: #495057;
      }

      .cls-2, .cls-3 {
        fill: none;
      }

      .cls-3 {
        clip-path: url(#clippath);
      }
    </style>
    <clipPath id="clippath">
      <rect class="cls-2" width="20" height="20"/>
    </clipPath>
  </defs>
  <g class="cls-3">
    <g>
      <path class="cls-1" d="m5,1.88h-1.25c-.66,0-1.3.26-1.77.73-.47.47-.73,1.1-.73,1.77v13.12c0,.66.26,1.3.73,1.77.47.47,1.1.73,1.77.73h12.5c.66,0,1.3-.26,1.77-.73.47-.47.73-1.1.73-1.77V4.38c0-.66-.26-1.3-.73-1.77-.47-.47-1.1-.73-1.77-.73h-1.25v1.25h1.25c.33,0,.65.13.88.37.23.23.37.55.37.88v13.12c0,.33-.13.65-.37.88-.23.23-.55.37-.88.37H3.75c-.33,0-.65-.13-.88-.37s-.37-.55-.37-.88V4.38c0-.33.13-.65.37-.88.23-.23.55-.37.88-.37h1.25v-1.25Z"/>
      <path class="cls-1" d="m11.88,1.25c.17,0,.32.07.44.18.12.12.18.28.18.44v1.25c0,.17-.07.32-.18.44-.12.12-.28.18-.44.18h-3.75c-.17,0-.32-.07-.44-.18-.12-.12-.18-.28-.18-.44v-1.25c0-.17.07-.32.18-.44.12-.12.28-.18.44-.18h3.75Zm-3.75-1.25c-.5,0-.97.2-1.33.55-.35.35-.55.83-.55,1.33v1.25c0,.5.2.97.55,1.33.35.35.83.55,1.33.55h3.75c.5,0,.97-.2,1.33-.55.35-.35.55-.83.55-1.33v-1.25c0-.5-.2-.97-.55-1.33-.35-.35-.83-.55-1.33-.55h-3.75Z"/>
    </g>
  </g>
</svg>