<?xml version="1.0" encoding="utf-8"?>
<!-- Generator: Adobe Illustrator 27.6.1, SVG Export Plug-In . SVG Version: 6.00 Build 0)  -->
<svg version="1.1" id="Слой_1" xmlns="http://www.w3.org/2000/svg" xmlns:xlink="http://www.w3.org/1999/xlink" x="0px" y="0px"
	 viewBox="0 0 94.8 94.8" style="enable-background:new 0 0 94.8 94.8;" xml:space="preserve">
<style type="text/css">
	.st0{fill-rule:evenodd;clip-rule:evenodd;fill:#FFFFFF;}
</style>
<path class="st0" d="M54.2,2.6C50.5-1.2,44.5-0.7,41.1,3c-3.3,3.5-7.8,7.7-12.4,10.2c-3.9,2.1-7.4,2.7-10.5,1.2
	c-1.1-0.5-2.5-0.4-3.3,0.5l0,0c-0.9,0.9-1.1,2.2-0.5,3.3c1.5,3,0.9,6.5-1.2,10.5C10.7,33.3,6.5,37.8,3,41.1
	c-3.6,3.4-4.1,9.4-0.4,13.1l38,38c3.7,3.7,9.7,3.2,13.1-0.4c3.3-3.5,7.8-7.7,12.4-10.2c3.9-2.1,7.4-2.7,10.5-1.2
	c1.1,0.5,2.5,0.4,3.3-0.5l0,0c0.9-0.9,1.1-2.2,0.5-3.3c-1.5-3-0.9-6.5,1.2-10.5c2.5-4.7,6.7-9.2,10.2-12.4c3.6-3.4,4.1-9.4,0.4-13.1
	L54.2,2.6L54.2,2.6z M63.8,55.8c0,6.8-5.1,11-13.6,11H35.7c-0.4,0-0.8-0.2-1.1-0.5c-0.3-0.3-0.5-0.7-0.5-1.1V29.5
	c0-0.4,0.2-0.8,0.5-1.1c0.3-0.3,0.7-0.5,1.1-0.5h14.4c7.1,0,11.7,3.8,11.7,9.7c0,4.1-3.1,7.8-7.1,8.4v0.2
	C60.1,46.9,63.8,50.7,63.8,55.8z M48.6,32.9h-5.3c-1.6,0-2.9,1.3-2.9,2.9v5.8c0,1.6,1.3,2.9,2.9,2.9h4c5.4,0,8.3-2.2,8.3-6
	C55.6,34.9,53.1,32.9,48.6,32.9z M40.3,52v7c0,1.6,1.3,2.9,2.9,2.9h5.7c5.6,0,8.5-2.2,8.5-6.4c0-4.2-3-6.4-8.9-6.4l-5.3,0
	C41.6,49.1,40.3,50.4,40.3,52z"/>
</svg>
