<?xml version="1.0" encoding="UTF-8"?>
<svg id="Illustration" xmlns="http://www.w3.org/2000/svg" xmlns:xlink="http://www.w3.org/1999/xlink" viewBox="0 0 2831.7 2769.26">
  <defs>
    <style>
      .cls-1 {
        fill: url(#_26);
      }

      .cls-2 {
        fill: url(#linear-gradient-2);
      }

      .cls-3, .cls-4, .cls-5 {
        fill: #fff;
      }

      .cls-6 {
        fill: url(#linear-gradient-17);
      }

      .cls-7 {
        fill: url(#linear-gradient-15);
      }

      .cls-8 {
        fill: url(#linear-gradient-18);
      }

      .cls-9 {
        fill: url(#linear-gradient-14);
      }

      .cls-10 {
        fill: url(#linear-gradient-20);
      }

      .cls-11 {
        fill: url(#linear-gradient-6);
      }

      .cls-12 {
        fill: url(#linear-gradient-11);
      }

      .cls-13 {
        fill: #1f5aa9;
      }

      .cls-14 {
        fill: url(#linear-gradient-10);
      }

      .cls-15 {
        fill: url(#linear-gradient-16);
      }

      .cls-16 {
        fill: url(#_Безымянный_градиент_10);
      }

      .cls-17 {
        fill: url(#linear-gradient-21);
      }

      .cls-18 {
        fill: url(#linear-gradient-5);
      }

      .cls-19 {
        fill: url(#_16);
      }

      .cls-20 {
        fill: url(#_Безымянный_градиент_4);
      }

      .cls-4 {
        opacity: .15;
      }

      .cls-21 {
        fill: url(#linear-gradient-7);
      }

      .cls-22 {
        fill: url(#linear-gradient-9);
      }

      .cls-23 {
        fill: url(#linear-gradient-22);
      }

      .cls-24 {
        fill: url(#linear-gradient-3);
      }

      .cls-5 {
        opacity: .6;
      }

      .cls-25 {
        fill: url(#linear-gradient);
      }

      .cls-26 {
        fill: url(#linear-gradient-23);
      }

      .cls-27 {
        fill: url(#linear-gradient-19);
      }

      .cls-28 {
        fill: url(#linear-gradient-4);
      }

      .cls-29 {
        fill: url(#linear-gradient-8);
      }

      .cls-30 {
        fill: url(#linear-gradient-12);
      }

      .cls-31 {
        fill: url(#linear-gradient-13);
      }
    </style>
    <linearGradient id="_Безымянный_градиент_4" data-name="Безымянный градиент 4" x1="3107.26" y1="3577.95" x2="649.07" y2="525.05" gradientUnits="userSpaceOnUse">
      <stop offset="0" stop-color="#963e90"/>
      <stop offset=".18" stop-color="#943d94"/>
      <stop offset=".38" stop-color="#8f3aa1"/>
      <stop offset=".59" stop-color="#8737b7"/>
      <stop offset=".81" stop-color="#7d31d6"/>
      <stop offset="1" stop-color="#712cf9"/>
    </linearGradient>
    <linearGradient id="linear-gradient" x1="576.67" y1="1536.79" x2="2179.06" y2="1536.79" gradientTransform="translate(38.69 -37.37) rotate(-1.25)" gradientUnits="userSpaceOnUse">
      <stop offset="0" stop-color="#2b3582"/>
      <stop offset="1" stop-color="#150e42"/>
    </linearGradient>
    <linearGradient id="_Безымянный_градиент_10" data-name="Безымянный градиент 10" x1="2184.59" y1="339.87" x2="-712.12" y2="4501.33" gradientUnits="userSpaceOnUse">
      <stop offset="0" stop-color="#712cf9"/>
      <stop offset=".66" stop-color="#e57a58"/>
      <stop offset="1" stop-color="#b5539a"/>
    </linearGradient>
    <linearGradient id="linear-gradient-2" x1="840.87" y1="1463.74" x2="1410.31" y2="1463.74" gradientUnits="userSpaceOnUse">
      <stop offset="0" stop-color="#53d8ff"/>
      <stop offset="1" stop-color="#3840f7"/>
    </linearGradient>
    <linearGradient id="linear-gradient-3" x1="2194.53" y1="441.47" x2="1225.71" y2="2516.79" xlink:href="#linear-gradient-2"/>
    <linearGradient id="linear-gradient-4" x1="1354.1" y1="179.83" x2="385.28" y2="2255.14" xlink:href="#linear-gradient-2"/>
    <linearGradient id="linear-gradient-5" x1="2055.2" y1="265.67" x2="1086.37" y2="2340.99" xlink:href="#linear-gradient-2"/>
    <linearGradient id="linear-gradient-6" x1="2253.19" y1="418.24" x2="1243.76" y2="2580.54" xlink:href="#linear-gradient-2"/>
    <linearGradient id="linear-gradient-7" x1="2283.46" y1="769.64" x2="2405.19" y2="1075.01" gradientTransform="matrix(1,0,0,1,0,0)" xlink:href="#linear-gradient"/>
    <linearGradient id="linear-gradient-8" x1="2032.3" y1="946.07" x2="2257.2" y2="1457.77" gradientUnits="userSpaceOnUse">
      <stop offset="0" stop-color="#febbba"/>
      <stop offset="1" stop-color="#ff928e"/>
    </linearGradient>
    <linearGradient id="linear-gradient-9" x1="2728.47" y1="2724.66" x2="2831.7" y2="2724.66" gradientTransform="matrix(1,0,0,1,0,0)" xlink:href="#linear-gradient"/>
    <linearGradient id="linear-gradient-10" x1="2292.28" y1="3131.73" x2="2440.84" y2="1395.54" xlink:href="#linear-gradient-8"/>
    <linearGradient id="linear-gradient-11" x1="2248.89" y1="2705.81" x2="2415.92" y2="2705.81" gradientTransform="matrix(1,0,0,1,0,0)" xlink:href="#linear-gradient"/>
    <linearGradient id="linear-gradient-12" x1="2591.1" y1="3157.56" x2="2739.69" y2="1420.92" xlink:href="#linear-gradient-8"/>
    <linearGradient id="linear-gradient-13" x1="2468.04" y1="1339.66" x2="3413.12" y2="931.71" gradientTransform="matrix(1,0,0,1,0,0)" xlink:href="#linear-gradient"/>
    <linearGradient id="linear-gradient-14" x1="2705.12" y1="1414.72" x2="2333.72" y2="2008.96" xlink:href="#linear-gradient-2"/>
    <linearGradient id="linear-gradient-15" x1="2287.59" y1="755.53" x2="2323.29" y2="1408.21" xlink:href="#linear-gradient-8"/>
    <linearGradient id="linear-gradient-16" x1="2205.56" y1="1157.16" x2="2449.03" y2="723.86" xlink:href="#linear-gradient-8"/>
    <linearGradient id="linear-gradient-17" x1="2257.92" y1="779.83" x2="2379.65" y2="1085.2" gradientTransform="matrix(1,0,0,1,0,0)" xlink:href="#linear-gradient"/>
    <linearGradient id="linear-gradient-18" x1="2257.39" y1="1186.28" x2="2500.86" y2="752.98" xlink:href="#linear-gradient-8"/>
    <linearGradient id="linear-gradient-19" x1="1987.86" y1="965.6" x2="2212.76" y2="1477.31" xlink:href="#linear-gradient-8"/>
    <linearGradient id="_16" data-name="  16" x1="2105.73" y1="357.94" x2="1743.7" y2="1102.4" gradientUnits="userSpaceOnUse">
      <stop offset="0" stop-color="#f9b776"/>
      <stop offset=".58" stop-color="#f69369"/>
      <stop offset="1" stop-color="#f47960"/>
    </linearGradient>
    <linearGradient id="linear-gradient-20" x1="2485.19" y1="1515.78" x2="1684.64" y2="1959.39" gradientUnits="userSpaceOnUse">
      <stop offset="0" stop-color="#a737d5"/>
      <stop offset="1" stop-color="#ef497a"/>
    </linearGradient>
    <linearGradient id="linear-gradient-21" x1="2391" y1="1519.85" x2="2576.37" y2="1519.85" xlink:href="#linear-gradient-8"/>
    <linearGradient id="_26" data-name="  26" x1="2245.86" y1="1477.09" x2="1863.43" y2="2088.98" gradientUnits="userSpaceOnUse">
      <stop offset="0" stop-color="#fdf53f"/>
      <stop offset=".11" stop-color="#fcf03f"/>
      <stop offset=".23" stop-color="#f9e342"/>
      <stop offset=".36" stop-color="#f5ce46"/>
      <stop offset=".49" stop-color="#efaf4d"/>
      <stop offset=".62" stop-color="#e78954"/>
      <stop offset=".66" stop-color="#e57a58"/>
      <stop offset="1" stop-color="#d93c65"/>
    </linearGradient>
    <linearGradient id="linear-gradient-22" x1="2493.37" y1="-464.03" x2="3245.08" y2="304.96" gradientTransform="translate(-602.78 -245.83) rotate(14.57)" xlink:href="#linear-gradient-20"/>
    <linearGradient id="linear-gradient-23" x1="3969.39" y1="-246.02" x2="2675.28" y2="672.55" gradientTransform="translate(-602.78 -245.83) rotate(14.57)" gradientUnits="userSpaceOnUse">
      <stop offset="0" stop-color="#b37cff"/>
      <stop offset="1" stop-color="#f895e7"/>
    </linearGradient>
  </defs>
  <path class="cls-20" d="m2430.99,2374c-56.46,59.44-109.89,97.78-152.1,128.06-496.17,356.01-1083.28,252.23-1208.05,226.89-184.26-37.42-540.42-109.76-797.91-412.57C-116.64,1858.25-55.98,1136.47,246.2,660.02,301.47,572.87,593.44,89.16,1186.87,11.59c359.14-46.95,777.77,47.74,1080.94,301.73,636.37,533.15,591.07,1610.22,163.19,2060.67Z"/>
  <g>
    <path class="cls-25" d="m764.58,291.83c-62.13,5.4-109.76,57.44-109.94,119.8-1.08,381.38-2.87,1696.84,21.99,2162.45,2.63,49.33,43.07,88.08,92.47,88.61,244.3,2.63,947.03,7.46,1345.98-18.06,83.09-5.32,147.75-74.14,147.65-157.4-.48-400.27-6.88-1525.96-61.71-2040.5-6.57-61.65-56.13-109.77-117.94-114.59-266.45-20.76-974.01-70.27-1318.5-40.31Z"/>
    <path class="cls-16" d="m752.71,511.58c-4.8,326.23-18.46,1411.48,5.39,1812.02,3.49,58.55,48.96,104.77,105.11,106.72,231.2,8.06,824.07,23.65,1161.9-13.52,60.83-6.69,107.32-59.42,108.94-123.27,8.45-332.92,31.28-1343.7,8.1-1739.76-3.7-63.18-51.97-113.6-112.48-117.68-250.33-16.87-893.16-55.77-1180.44-31.84-53.93,4.49-95.7,50.85-96.53,107.33Z"/>
    <path class="cls-13" d="m1311.31,348.56c.2,9.01,7.39,16.29,16.4,16.57,44.49,1.35,169.81,5.19,225.82,7.21,11.04.4,19.48-9.71,17.15-20.51-.19-.34-1.63-14.19-15.77-15.17-37.89-2.63-152.2-9.74-227.74-5.38-15.51.9-16.36,18.54-15.85,17.29Z"/>
  </g>
  <path class="cls-2" d="m859.6,1213.75h535.11c8.61,0,15.61,6.99,15.61,15.61v469.81c0,8.04-6.53,14.57-14.57,14.57h-534.19c-11.41,0-20.68-9.27-20.68-20.68v-460.58c0-10.33,8.39-18.72,18.72-18.72Z"/>
  <path class="cls-24" d="m1974.19,2310.83l-1060.57,26.61c-39.88,1-72.74-31.05-72.74-70.94v-422.78c0-39.68,32.17-71.85,71.85-71.85h1087.76c33.13,0,59.99,26.86,59.99,59.99v390.51c0,48.01-38.28,87.27-86.28,88.47Z"/>
  <path class="cls-28" d="m1679.47,774.44l-1089.34,15.9c-25.54.37-46.45-20.23-46.45-45.77v-182.04c0-38.85,32.18-69.97,71.01-68.67l1041.08,34.92c44.96,1.51,80.63,38.39,80.63,83.38v104.51c0,31.58-25.36,57.31-56.93,57.77Z"/>
  <path class="cls-18" d="m2238.38,1153.88l-1055.23,15.41c-39.16.57-71.21-31.02-71.21-70.18v-169.93c0-32.42,25.97-58.87,58.38-59.47l1069.65-19.67c35.53-.65,64.68,27.97,64.68,63.5v173.09c0,36.76-29.52,66.71-66.27,67.25Z"/>
  <path class="cls-11" d="m1504.53,1201.09h533.88c9.61,0,17.41,7.8,17.41,17.41v463.93c0,10.29-8.36,18.65-18.65,18.65h-533.41c-9.59,0-17.38-7.79-17.38-17.38v-464.47c0-10.01,8.13-18.14,18.14-18.14Z"/>
  <g>
    <path class="cls-21" d="m2355.64,933.91s41.04,19.96,48.59,42.89c6.05,18.4,51.43,20.77,55.92,56.96,2.31,18.68,16.14,33.65,34.75,36.5,46.35,7.1,117.77,31.17,129.2,111.64,8.72,61.42-22.59,84.71-55.45,92.77-24.14,5.92-40.17,29.4-35.29,53.76,4.68,23.37-2.3,50.39-42.79,71.75-90.73,47.88-181.35-113.42-181.35-113.42l-18.57-281.64,64.99-71.21Z"/>
    <path class="cls-29" d="m1928.54,785.38s116.75,318.27,315.69,417.75c0,0-66.21,108.03-100.77,114.59,0,0-212.52-271.99-234.18-494.83l19.26-37.5Z"/>
    <path class="cls-22" d="m2728.59,2699.9l5.87,48.27c1.11,9.16,8.32,16.4,17.49,17.44,15.47,1.77,40.3,3.58,64.6,1.01,10.66-1.13,17.59-11.93,14.34-22.14-5.92-18.63-16.76-46.6-32.38-63.07h-53.54c-9.9,0-17.57,8.66-16.37,18.49Z"/>
    <path class="cls-14" d="m2309.22,2134.47l-9.04,53.16s30.26,306.56,35.65,429.18c.84,19.22-4.13,38.22-14.22,54.61l-52.63,85.46,133.75-78.92,2.66-16.32-21.89-30.1,28.68-343.42c1.68-20.17-2.48-40.41-11.99-58.28l-27.66-51.97-63.3-43.39Z"/>
    <path class="cls-12" d="m2260.17,2769.26h42.68c7.99,0,15.52-3.67,20.4-10,13.31-17.29,40.87-51.02,54.05-51.9,17.74-1.19,15.47,61.9,15.47,61.9h9.95l12.6-78.39c3.17-19.72-6.64-39.26-24.35-48.5,0,0-4.06,30-26.05,43.27-21.99,13.27-89.5,60.79-89.5,60.79,0,0-8.27-1.18-17.35.46-13.47,2.43-11.59,22.38,2.1,22.38Z"/>
    <path class="cls-30" d="m2492.4,2159.72s177.3,336.32,205.48,413.11c28.18,76.79,38.06,140.85,38.44,146.91.59,9.48,12.38,18.57,44.88,18.57,16.77,0,24.98-6.72,29.01-13.23,3.43-5.55,3.61-12.5.72-18.35-10.26-20.76-42.8-87.09-54.86-117.17-14.39-35.92-45.35-198.7-62.33-255.3-16.98-56.6-36.17-117.99-110.1-174.54,0,0-50.75-49.71-91.23,0Z"/>
    <path class="cls-31" d="m2380.4,1608.64c-45.74-193.8,70.13-303.41,70.13-303.41-73.11-70.17-206.3-102.11-206.3-102.11,0,0-127.1,92.92-112.02,165.65,8.84,42.63,89.34,255.34,89.34,255.34,0,0,74.44,35.23,158.86-15.47Z"/>
    <path class="cls-9" d="m2481.8,1704.59c-18.61-56.07-101.4-95.94-101.4-95.94-84.42,50.7-158.86,15.47-158.86,15.47,0,0-16.69,63.81-5.17,123.11,11.52,59.3,83.81,440.41,83.81,440.41,113.9,23.08,289.09-23.22,289.09-23.22-72.55-128.81-88.85-403.75-107.46-459.83Z"/>
    <path class="cls-7" d="m2327.31,1075.06l37.18,167.02c3.56,14.71-9.85,12.3-24.73,9.5-24.36-4.59-55.75-14.05-66.25-33-1.07-1.93-1.6-4.11-1.9-6.29l-15.97-115.82c-1.27-9.19,3.7-18.11,12.18-21.87l30.83-13.67c11.87-5.26,25.61,1.51,28.66,14.13Z"/>
    <g>
      <path class="cls-15" d="m2283.69,916.03s-44.04,18.6-73.98,82.23c-29.94,63.64-7.58,93.02,20.51,97.05,28.09,4.03,70.09,3.42,114.52-37.69,44.43-41.11-3.8-163.64-61.05-141.6Z"/>
      <path class="cls-6" d="m2314.87,1023.65s33.22-93.1-49.32-94.2l-19.42,13.58s-30.29-51.62,19.42-76.26c49.71-24.64,107.89-4.29,129.04,62.68,21.15,66.97,24.77,111.8-10.43,143.84-35.19,32.04-49.7-4.29-49.7-4.29,0,0,19.17-29.97,11.36-46-7.8-16.03-25.8,3.32-25.8,3.32l-5.16-2.67Z"/>
      <path class="cls-8" d="m2324.12,1034.02s16.8-47.96,39.21-28.86c22.41,19.1-18.21,44.3-34.12,52.46l-5.09-23.6Z"/>
    </g>
    <g>
      <path class="cls-27" d="m1917.33,843.31c-1.78,5.66,18.85,14.29,30.99-8.87.42-11.1,7.17-58.65.54-67.7-35.33-48.16-103.81-108.53-103.81-108.53-11.57,11.42-2.04,22.64-2.04,22.64l33.22,34.61c-6.95,12.56-15.43,23.16-19.4,38.35-3.01,11.5-1.17,23.8,4.64,34.27,5.83,10.51,13.79,24.16,21.31,34.85,14.24,20.23,34.54,20.38,34.54,20.38Z"/>
      <path class="cls-19" d="m1900.51,819.63c-2.5-13.94-10.13-52.01-15.41-60.6-3.67-5.98-4.88-10.96-3.68-15.24,1.01-3.59,3.6-6.41,7.94-8.62l1.84-.94,32.47,27.52,9.79,26.31-5.8,2.16-9.22-24.8-27.99-23.73c-1.66,1.13-2.66,2.37-3.05,3.76-.7,2.49.31,5.96,2.99,10.33,6.97,11.34,15.86,60.66,16.23,62.76l-6.09,1.09Z"/>
    </g>
    <g>
      <path class="cls-10" d="m2762.75,1753.1h-742.37c-23.67,0-42.86-8.87-42.86-19.81v-331.26c0-10.92,19.12-19.78,42.75-19.81l748.3-.93c23.81-.03,43.1,8.91,42.98,19.91l-5.94,332.19c-.13,10.9-19.28,19.7-42.86,19.7Z"/>
      <path class="cls-4" d="m2743.65,1406.65l-697.13,1.89c-25.2.07-45.51,9.1-45.39,20.19l4.86,278.61c.12,10.92,20.03,19.8,44.84,20l677.34,5.44c25.3.2,46.15-8.68,46.51-19.81l14.92-285.93c.36-11.26-20.37-20.45-45.95-20.38Z"/>
      <path class="cls-5" d="m2756.06,1614.97h0c-.55,7.36-5.6,13.03-11.59,12.98l-392.72-2.98c-6.39-.05-11.44-6.55-11.2-14.43l.03-1.15c.23-7.69,5.42-13.81,11.66-13.75l392.69,4.13c6.62.07,11.74,7.05,11.13,15.19Z"/>
      <path class="cls-5" d="m2759.02,1684.1h0c-.55,7.36-5.6,13.03-11.59,12.98l-392.72-2.98c-6.39-.05-11.44-6.55-11.2-14.43l.03-1.15c.23-7.69,5.42-13.81,11.66-13.75l392.69,4.13c6.62.07,11.74,7.05,11.13,15.19Z"/>
      <path class="cls-5" d="m2754.92,1466.84h0c-.55,7.36-5.6,13.03-11.59,12.99l-392.72-2.98c-6.39-.05-11.44-6.55-11.2-14.43l.03-1.15c.23-7.69,5.42-13.81,11.66-13.75l392.69,4.13c6.62.07,11.74,7.05,11.13,15.19Z"/>
      <path class="cls-5" d="m2757.89,1535.96h0c-.55,7.36-5.6,13.03-11.59,12.98l-392.72-2.98c-6.39-.05-11.44-6.55-11.2-14.43l.03-1.15c.23-7.69,5.42-13.81,11.66-13.75l392.69,4.13c6.62.07,11.74,7.05,11.13,15.19Z"/>
    </g>
    <path class="cls-17" d="m2450.53,1305.23s259.52,185.68,33.19,380.78c0,0-8.63,9.76-25.61,14.84-8.57,2.56-33.93,21.75-46.78,31.75-4.13,3.22-10.1,2.12-12.88-2.32-2.18-3.48-2.43-7.82-.68-11.53l32.13-67.94c8.92-8.33,22.58-8.92,32.19-1.39,6.13,4.8,15.11,2.79,18.54-4.2,17.5-35.64,50.53-140.44-84.69-258.87-5.08-4.45-6.37-11.81-3.25-17.81,9.5-18.25,31.23-54.49,57.84-63.31Z"/>
    <path class="cls-5" d="m2253.02,1575.87c0,10.42-2.4,20.28-6.56,29.14,18.83,3.19,37.21,8.1,55.75,12.69,4.65-13.09,7.21-27.16,7.21-41.83,0-52.73-32.77-97.93-79-116.38-9.68,16.59-19.35,33.18-29.03,49.77,29.64,7.69,51.63,34.59,51.63,66.61Z"/>
    <path class="cls-1" d="m2246.46,1605.01c-11.01,23.43-34.77,39.74-62.32,39.74-37.98,0-68.88-30.9-68.88-68.88s30.9-68.88,68.88-68.88c5.96,0,11.72.84,17.25,2.27,9.68-16.59,19.35-33.18,29.03-49.77-14.33-5.72-29.94-8.9-46.28-8.9-69.07,0-125.27,56.2-125.27,125.27s56.2,125.27,125.27,125.27c54.41,0,100.81-34.88,118.07-83.44-18.54-4.59-36.91-9.5-55.75-12.69Z"/>
  </g>
  <g>
    <g>
      <path class="cls-23" d="m1889.95,483.63c.47,2,2.16,3.48,4.21,3.69l58.39,5.88c12.21,24.54,28.42,47.3,48.39,67.22l-12.9,57.21c-.45,2.01.42,4.08,2.17,5.16l59.87,37.02c1.75,1.08,3.99.93,5.59-.37l45.42-37.1c26.74,8.97,54.35,13.3,81.75,13.26l31.35,49.61c1.1,1.74,3.18,2.59,5.18,2.12l68.51-16.16c2-.47,3.48-2.16,3.69-4.21l5.89-58.39c24.54-12.21,47.3-28.42,67.22-48.39l57.21,12.9c2.01.45,4.08-.42,5.16-2.17l37.02-59.87c1.08-1.75.93-3.99-.37-5.59l-37.1-45.42c8.97-26.74,13.3-54.35,13.26-81.75l49.61-31.35c1.74-1.1,2.59-3.18,2.12-5.18l-16.16-68.51c-.47-2-2.16-3.48-4.21-3.69l-58.39-5.89c-12.21-24.54-28.42-47.3-48.39-67.22l12.9-57.21c.45-2.01-.42-4.08-2.17-5.16l-59.87-37.02c-1.75-1.08-3.99-.93-5.59.37l-45.42,37.1c-26.74-8.97-54.35-13.3-81.76-13.26l-31.35-49.61c-1.1-1.74-3.18-2.59-5.18-2.12l-68.51,16.16c-2,.47-3.48,2.16-3.69,4.21l-5.89,58.39c-24.54,12.21-47.3,28.42-67.22,48.39l-57.21-12.9c-2-.45-4.08.42-5.16,2.17l-37.02,59.87c-1.08,1.75-.93,3.99.37,5.59l37.1,45.42c-8.97,26.74-13.3,54.35-13.26,81.75l-49.61,31.36c-1.74,1.1-2.59,3.18-2.12,5.18l16.16,68.51Z"/>
      <path class="cls-3" d="m2214.19,438.96s-.04.02-.06.03c-16.18,8.4-34.66,9.99-52.03,4.49-17.38-5.5-31.57-17.44-39.97-33.61-8.4-16.18-10-34.66-4.5-52.04,11.35-35.88,49.78-55.82,85.65-44.47,17.38,5.5,31.57,17.44,39.97,33.61,8.4,16.18,10,34.66,4.5,52.04-5.49,17.35-17.41,31.54-33.56,39.94Zm-57.71-110.89c-13.43,6.99-23.34,18.79-27.92,33.23-4.58,14.46-3.25,29.83,3.74,43.29,6.99,13.46,18.8,23.39,33.25,27.97,14.46,4.57,29.83,3.25,43.29-3.74.01,0,.03-.02.05-.02,13.44-6.99,23.34-18.79,27.92-33.23,4.58-14.46,3.25-29.83-3.74-43.29-6.99-13.46-18.8-23.39-33.25-27.97-14.46-4.57-29.83-3.25-43.29,3.74-.01,0-.03.02-.05.03Z"/>
      <path class="cls-3" d="m2265.4,533.56c-53.13,27.65-119.1,27.47-173.64-6.25-10.65-6.59-20.6-14.29-29.54-22.91l7.95-8.26c8.37,8.05,17.66,15.25,27.62,21.41,60.47,37.39,135.99,30.67,188.65-11.28.1-.08.2-.16.3-.23.1-.08.2-.16.3-.24,14.13-11.36,26.59-25.26,36.65-41.53,23.06-37.28,30.21-81.31,20.15-123.98-3.19-13.52-7.99-26.39-14.24-38.4-13.48-25.89-33.72-47.77-59.19-63.51-76.97-47.59-178.31-23.69-225.9,53.28-15.65,25.31-24.13,54.32-24.54,83.91l-11.47-.16c.43-31.66,9.51-62.7,26.25-89.78,50.92-82.34,159.34-107.92,241.69-57,27.25,16.85,48.9,40.26,63.32,67.95,6.69,12.85,11.82,26.62,15.23,41.09,10.77,45.65,3.11,92.76-21.55,132.65-17.19,27.81-40.96,49.15-68.05,63.25Z"/>
    </g>
    <g>
      <path class="cls-26" d="m2485.06,648.5c-.99.5-1.56,1.58-1.4,2.69l4.37,31.48c-11.35,9.56-21.26,21-29.18,34.06l-31.75.53c-1.11.02-2.09.74-2.44,1.8l-11.83,36.24c-.35,1.06.02,2.22.91,2.89l25.33,19.16c-1.3,15.22-.05,30.3,3.48,44.71l-22.09,22.84c-.77.8-.96,2-.45,3l17.26,33.99c.51.99,1.58,1.56,2.69,1.4l31.48-4.37c9.56,11.35,21,21.26,34.06,29.18l.53,31.75c.02,1.11.74,2.09,1.8,2.44l36.24,11.83c1.06.35,2.22-.02,2.89-.91l19.16-25.33c15.22,1.3,30.3.05,44.72-3.48l22.84,22.09c.8.77,2,.96,3,.45l33.99-17.26c.99-.5,1.56-1.58,1.4-2.69l-4.37-31.48c11.35-9.56,21.26-21,29.18-34.06l31.75-.53c1.11-.02,2.09-.74,2.44-1.8l11.83-36.24c.35-1.06-.02-2.22-.91-2.89l-25.33-19.16c1.3-15.22.05-30.3-3.48-44.72l22.09-22.84c.78-.8.96-2.01.45-3l-17.26-33.99c-.5-.99-1.58-1.56-2.69-1.4l-31.48,4.37c-9.56-11.35-21-21.26-34.06-29.18l-.53-31.75c-.02-1.11-.74-2.09-1.8-2.44l-36.24-11.83c-1.06-.35-2.22.02-2.89.91l-19.16,25.33c-15.22-1.3-30.3-.05-44.71,3.48l-22.84-22.09c-.8-.77-2-.96-3-.45l-33.99,17.26Z"/>
      <path class="cls-3" d="m2548.42,814.81s-.02-.02-.02-.03c-6.86-7.86-10.25-17.93-9.54-28.35.71-10.42,5.44-19.93,13.3-26.79,7.87-6.86,17.94-10.25,28.35-9.54,21.5,1.47,37.8,20.15,36.33,41.65-.71,10.42-5.44,19.93-13.3,26.79-7.87,6.86-17.94,10.25-28.35,9.54-10.4-.71-19.91-5.42-26.77-13.27Zm50.96-44.53c-4.82-5.51-11.73-9.19-19.59-9.73-7.62-.52-14.99,1.96-20.75,6.98-5.76,5.03-9.22,11.99-9.74,19.62-.52,7.62,1.96,15,6.98,20.75,0,0,.01.01.02.02,5.02,5.75,11.98,9.2,19.6,9.72,7.62.52,15-1.96,20.75-6.98,5.76-5.03,9.22-11.99,9.74-19.62.54-7.88-2.18-15.24-7.01-20.77Z"/>
      <path class="cls-3" d="m2505.2,853.86c-21.82-24.97-30.35-60.48-19.34-94.23,1.91-5.84,4.36-11.5,7.3-16.84.38-.69.76-1.37,1.16-2.04l9.04,5.27c-3.09,5.3-5.63,10.97-7.55,16.86h0c-2.13,6.53-3.44,13.13-3.99,19.7,0,.02,0,.03,0,.05,0,.03,0,.07,0,.1-2.39,29.22,10.31,57.7,33.16,75.49,5.91,4.61,12.5,8.51,19.67,11.53.23.1.46.19.69.29.19.08.38.15.57.23.48.19.96.38,1.45.57,1.32.5,2.66.98,4.02,1.42,22.03,7.19,45.53,5.37,66.19-5.12,6.55-3.33,12.56-7.4,17.94-12.1,11.62-10.15,20.33-23.28,25.24-38.32,7.19-22.03,5.37-45.54-5.12-66.19-10.49-20.66-28.4-36-50.43-43.18-14.95-4.88-30.91-5.62-46.15-2.13l-2.33-10.21c17.09-3.91,34.98-3.08,51.73,2.39,24.69,8.05,44.76,25.24,56.52,48.39,11.76,23.15,13.8,49.5,5.74,74.18-5.5,16.86-15.27,31.57-28.28,42.95-6.04,5.28-12.77,9.84-20.11,13.56-23.15,11.76-49.5,13.8-74.18,5.74-17.21-5.62-31.79-15.61-42.92-28.34Z"/>
    </g>
  </g>
</svg>