<svg width="550" height="306" viewBox="0 0 550 306" fill="none" xmlns="http://www.w3.org/2000/svg">
<g clip-path="url(#clip0_318_3)">
<mask id="mask0_318_3" style="mask-type:luminance" maskUnits="userSpaceOnUse" x="83" y="265" width="96" height="96">
<path d="M178.82 265.56H83.51V360.87H178.82V265.56Z" fill="white"/>
</mask>
<g mask="url(#mask0_318_3)">
<path d="M87.4601 258.92C83.5601 262.06 80.0101 265.61 76.8701 269.51L80.6401 265.74L85.2301 261.15L87.4601 258.92Z" fill="#9A8CF3"/>
<path d="M199.95 301.79L199 302.74L194.41 307.33L189.82 311.92L185.23 316.51L180.64 321.1L176.05 325.69L171.46 330.28L166.87 334.87L162.28 339.46L157.69 344.05L153.1 348.64L148.51 353.23L143.92 357.82L139.33 362.41L134.74 367L130.15 371.59L125.56 376.18L120.97 380.77L119.81 381.93C120.05 381.97 120.29 382.01 120.54 382.05L126.66 375.93L131.25 371.34L135.84 366.75L144.81 357.78L145.03 357.56L149.62 352.97L154.21 348.38L158.8 343.79L163.39 339.2L167.98 334.61L172.57 330.02L177.16 325.43L181.75 320.84L186.34 316.25L190.93 311.66L195.52 307.07L200.09 302.5C200.05 302.26 200.01 302.02 199.97 301.77L199.95 301.79Z" fill="#9A8CF3"/>
<path d="M200.5 305.84L199 307.34L194.41 311.93L189.82 316.52L185.23 321.11L178.34 328L176.04 330.3L171.45 334.89L166.86 339.48L162.27 344.07L157.68 348.66L153.09 353.25L148.5 357.84L143.91 362.43L139.32 367.02L134.73 371.61L130.14 376.2L125.55 380.79L123.84 382.5C124.1 382.53 124.36 382.55 124.61 382.58L126.64 380.55L131.23 375.96L135.82 371.37L140.41 366.78L145 362.19L149.59 357.6L154.18 353.01L158.77 348.42L167.96 339.23L172.55 334.64L177.14 330.05L184.57 322.62L186.33 320.87L190.92 316.28L195.51 311.69L200.1 307.1L200.58 306.62C200.56 306.36 200.53 306.1 200.5 305.85V305.84Z" fill="#9A8CF3"/>
<path d="M194.58 284.2L194.41 284.37L189.82 288.96L185.23 293.55L180.64 298.14L176.05 302.73L171.46 307.32L166.87 311.91L162.28 316.5L157.69 321.09L153.1 325.68L148.51 330.27L143.92 334.86L139.33 339.45L134.74 344.04L130.15 348.63L125.56 353.22L120.97 357.81L116.38 362.4L111.79 366.99L107.2 371.58L102.61 376.17L102.24 376.54C102.43 376.63 102.63 376.72 102.82 376.81L103.48 376.15L103.7 375.93L108.29 371.34L112.88 366.75L117.47 362.16L122.06 357.57L126.65 352.98L131.24 348.39L135.83 343.8L140.42 339.21L145.01 334.62L149.6 330.03L154.19 325.44L158.78 320.85L163.37 316.26L167.96 311.67L172.55 307.08L177.14 302.49L181.73 297.9L186.32 293.31L190.91 288.72L194.84 284.79C194.75 284.6 194.66 284.4 194.58 284.21V284.2Z" fill="#9A8CF3"/>
<path d="M196.19 288.02C196.11 287.82 196.03 287.61 195.95 287.41L194.41 288.95L189.82 293.54L185.23 298.13L180.64 302.72L176.05 307.31L171.46 311.9L166.87 316.49L162.28 321.08L155.39 327.97L153.09 330.27L148.5 334.86L143.91 339.45L139.32 344.04L134.73 348.63L130.14 353.22L125.55 357.81L120.96 362.4L116.37 366.99L111.78 371.58L107.19 376.17L105.44 377.92C105.64 378 105.85 378.08 106.05 378.16L108.29 375.92L112.88 371.33L117.47 366.74L126.66 357.55L131.25 352.96L135.84 348.37L145.03 339.18L149.62 334.59L154.21 330L158.8 325.41L163.39 320.82L167.98 316.23L172.57 311.64L177.16 307.05L181.75 302.46L186.34 297.87L190.93 293.28L195.52 288.69L196.21 288L196.19 288.02Z" fill="#9A8CF3"/>
<path d="M189.68 275.31L185.22 279.77L180.63 284.36L176.04 288.95L171.45 293.54L166.86 298.13L162.27 302.72L157.68 307.31L153.09 311.9L148.5 316.49L143.91 321.08L139.32 325.67L134.73 330.26L130.14 334.85L125.55 339.44L120.96 344.03L116.37 348.62L111.78 353.21L107.19 357.8L102.6 362.39L98.0101 366.98L93.4201 371.57L93.3501 371.64C93.5201 371.75 93.6901 371.86 93.8601 371.97L94.5101 371.32L99.1001 366.73L103.69 362.14L108.28 357.55L112.87 352.96L117.46 348.37L126.65 339.18L131.24 334.59L135.83 330L143.26 322.57L145.01 320.82L149.6 316.23L154.19 311.64L158.78 307.05L163.37 302.46L167.96 297.87L172.55 293.28L177.14 288.69L181.73 284.1L186.32 279.51L190.02 275.81C189.91 275.64 189.8 275.47 189.69 275.3L189.68 275.31Z" fill="#9A8CF3"/>
<path d="M191.75 278.69C191.65 278.51 191.54 278.33 191.44 278.15L189.82 279.77L185.23 284.36L180.64 288.95L176.05 293.54L171.46 298.13L166.87 302.72L162.28 307.31L157.69 311.9L153.1 316.49L148.51 321.08L143.92 325.67L139.33 330.26L134.74 334.85L130.15 339.44L125.56 344.03L120.97 348.62L116.38 353.21L111.79 357.8L107.2 362.39L102.61 366.98L98.0199 371.57L96.1899 373.4C96.3699 373.5 96.5499 373.61 96.7299 373.71L99.1099 371.33L103.7 366.74L108.29 362.15L112.88 357.56L117.47 352.97L122.06 348.38L126.65 343.79L131.24 339.2L135.83 334.61L140.42 330.02L145.01 325.43L149.6 320.84L154.19 316.25L158.78 311.66L163.37 307.07L167.96 302.48L172.55 297.89L177.14 293.3L181.73 288.71L186.32 284.12L190.91 279.53L191.75 278.69Z" fill="#9A8CF3"/>
<path d="M184.15 267.91C184.02 267.76 183.89 267.61 183.76 267.45L180.63 270.58L176.04 275.17L171.45 279.76L166.86 284.35L162.27 288.94L157.68 293.53L153.09 298.12L148.5 302.71L143.91 307.3L139.32 311.89L134.73 316.48L130.14 321.07L125.55 325.66L120.96 330.25L116.37 334.84L111.78 339.43L107.19 344.02L102.6 348.61L98.01 353.2L88.82 362.39L85.48 365.73C85.63 365.86 85.78 365.99 85.94 366.12L89.91 362.15L94.5 357.56L99.09 352.97L103.68 348.38L108.27 343.79L112.86 339.2L117.45 334.61L122.04 330.02L126.63 325.43L131.22 320.84L135.81 316.25L140.4 311.66L144.99 307.07L149.58 302.48L154.17 297.89L158.76 293.3L163.35 288.71L167.94 284.12L172.53 279.53L177.12 274.94L181.71 270.35L184.14 267.92L184.15 267.91Z" fill="#9A8CF3"/>
<path d="M181.98 265.49C181.84 265.34 181.71 265.2 181.57 265.05L180.63 265.99L176.04 270.58L171.45 275.17L166.86 279.76L162.27 284.35L157.68 288.94L153.09 293.53L148.5 298.12L143.91 302.71L139.32 307.3L134.73 311.89L130.14 316.48L125.55 321.07L120.96 325.66L116.37 330.25L111.78 334.84L107.19 339.43L102.6 344.02L98.0101 348.61L93.4201 353.2L88.8301 357.79L84.2401 362.38L83.1001 363.52C83.2401 363.66 83.3901 363.79 83.5401 363.93L85.3401 362.13L89.9301 357.54L94.5201 352.95L99.1101 348.36L103.7 343.77L108.29 339.18L112.88 334.59L117.47 330L126.32 321.15L126.66 320.81L131.25 316.22L135.84 311.63L140.43 307.04L145.02 302.45L149.61 297.86L154.2 293.27L158.79 288.68L163.38 284.09L167.97 279.5L172.56 274.91L177.15 270.32L181.74 265.73L182 265.47L181.98 265.49Z" fill="#9A8CF3"/>
<path d="M186.22 270.44C186.1 270.28 185.97 270.12 185.85 269.97L185.23 270.59L180.64 275.18L176.05 279.77L171.46 284.36L166.87 288.95L162.28 293.54L157.69 298.13L153.1 302.72L148.51 307.31L143.92 311.9L139.33 316.49L134.74 321.08L130.15 325.67L125.56 330.26L120.97 334.85L112 343.82L111.78 344.04L107.19 348.63L102.6 353.22L98.01 357.81L93.42 362.4L88.83 366.99L88 367.82C88.16 367.95 88.32 368.07 88.48 368.19L89.93 366.74L94.52 362.15L99.11 357.56L103.7 352.97L108.29 348.38L112.88 343.79L117.47 339.2L122.06 334.61L126.65 330.02L131.24 325.43L135.83 320.84L140.42 316.25L145.01 311.66L149.6 307.07L154.19 302.48L158.78 297.89L163.37 293.3L167.96 288.71L172.55 284.12L177.14 279.53L181.73 274.94L186.23 270.44H186.22Z" fill="#9A8CF3"/>
<path d="M179.7 263.17C179.56 263.03 179.42 262.89 179.27 262.75L176.03 265.99L171.44 270.58L166.85 275.17L162.26 279.76L157.67 284.35L153.08 288.94L148.49 293.53L143.9 298.12L139.31 302.71L134.72 307.3L130.13 311.89L125.54 316.48L120.95 321.07L114.06 327.96L111.76 330.26L107.17 334.85L102.58 339.44L97.99 344.03L93.4 348.62L88.81 353.21L84.22 357.8L80.78 361.24C80.92 361.38 81.06 361.53 81.2 361.67L85.31 357.56L89.9 352.97L94.49 348.38L103.68 339.19L108.27 334.6L112.86 330.01L117.45 325.42L122.04 320.83L126.63 316.24L131.22 311.65L135.81 307.06L140.4 302.47L144.99 297.88L149.58 293.29L154.17 288.7L158.76 284.11L163.35 279.52L167.94 274.93L172.53 270.34L177.12 265.75L179.69 263.18L179.7 263.17Z" fill="#9A8CF3"/>
<path d="M139.27 247.61L134.68 252.2L130.09 256.79L125.5 261.38L120.91 265.97L116.32 270.56L111.73 275.15L107.14 279.74L102.55 284.33L97.9599 288.92L93.3699 293.51L88.7799 298.1L84.1899 302.69L79.5999 307.28L75.0099 311.87L70.4199 316.46L65.8299 321.05L62.4399 324.44C62.4799 324.68 62.5199 324.93 62.5599 325.17L66.9199 320.81L71.5099 316.22L76.0999 311.63L80.6899 307.04L85.2799 302.45L89.8699 297.86L94.4599 293.27L99.0499 288.68L103.64 284.09L108.23 279.5L112.82 274.91L117.41 270.32L122 265.73L126.59 261.14L131.18 256.55L135.77 251.96L140.36 247.37L143.18 244.55C142.94 244.51 142.7 244.47 142.45 244.43L139.26 247.62L139.27 247.61Z" fill="#9A8CF3"/>
<path d="M134.68 247.61L130.09 252.2L125.5 256.79L120.91 261.38L116.32 265.97L111.73 270.56L107.14 275.15L102.55 279.74L97.9601 284.33L93.3701 288.92L88.7801 293.51L84.1901 298.1L79.6001 302.69L75.0101 307.28L70.4201 311.87L65.8301 316.46L61.9001 320.39C61.9301 320.64 61.9601 320.9 61.9901 321.15L62.3301 320.81L66.9201 316.22L71.5101 311.63L76.1001 307.04L80.6901 302.45L85.2801 297.86L89.8701 293.27L94.4601 288.68L99.0501 284.09L103.64 279.5L108.23 274.91L112.82 270.32L117.41 265.73L122 261.14L126.59 256.55L131.18 251.96L135.77 247.37L139.17 243.97C138.92 243.94 138.66 243.91 138.41 243.88L134.68 247.61Z" fill="#9A8CF3"/>
<path d="M130.08 247.61L125.49 252.2L120.9 256.79L116.31 261.38L111.72 265.97L107.13 270.56L102.54 275.15L97.9501 279.74L93.3601 284.33L88.7701 288.92L84.1801 293.51L79.5901 298.1L75.0001 302.69L70.4101 307.28L65.8201 311.87L61.5901 316.1C61.6001 316.37 61.6101 316.64 61.6301 316.91L62.3301 316.21L66.9201 311.62L71.5101 307.03L76.1001 302.44L80.6901 297.85L85.2801 293.26L89.8701 288.67L94.4601 284.08L99.0501 279.49L103.64 274.9L108.23 270.31L112.82 265.72L117.41 261.13L122 256.54L126.59 251.95L131.18 247.36L134.94 243.6C134.67 243.59 134.4 243.58 134.13 243.56L130.09 247.6L130.08 247.61Z" fill="#9A8CF3"/>
<path d="M125.49 247.61L120.9 252.2L116.31 256.79L111.72 261.38L107.13 265.97L102.54 270.56L97.95 275.15L93.36 279.74L88.77 284.33L84.18 288.92L79.59 293.51L75 298.1L70.41 302.69L65.82 307.28L61.54 311.56C61.54 311.85 61.54 312.13 61.53 312.42L62.32 311.63L66.91 307.04L71.5 302.45L76.09 297.86L80.68 293.27L85.27 288.68L89.86 284.09L94.45 279.5L99.04 274.91L103.63 270.32L108.22 265.73L112.81 261.14L117.4 256.55L121.99 251.96L126.58 247.37L130.43 243.52C130.14 243.52 129.86 243.52 129.57 243.53L125.49 247.61Z" fill="#9A8CF3"/>
<path d="M116.3 247.61L111.71 252.2L107.12 256.79L102.53 261.38L97.9401 265.97L93.3501 270.56L88.7601 275.15L84.1701 279.74L79.5801 284.33L74.9901 288.92L70.4001 293.51L65.8101 298.1L62.5001 301.4C62.4401 301.74 62.3801 302.08 62.3301 302.42L66.9001 297.85L71.4901 293.26L76.0801 288.67L80.6701 284.08L85.2601 279.49L89.8501 274.9L94.4401 270.31L99.0301 265.72L103.62 261.13L108.21 256.54L112.8 251.95L117.39 247.36L120.42 244.33C120.08 244.38 119.74 244.44 119.4 244.5L116.29 247.61H116.3Z" fill="#9A8CF3"/>
<path d="M117.39 380.6L121.98 376.01L126.57 371.42L131.16 366.83L135.75 362.24L140.34 357.65L144.93 353.06L149.52 348.47L154.11 343.88L158.7 339.29L163.29 334.7L167.88 330.11L172.47 325.52L177.06 320.93L181.65 316.34L186.24 311.75L190.83 307.16L195.42 302.57L199.27 298.72C199.22 298.49 199.17 298.26 199.12 298.02L198.92 298.22L194.33 302.81L189.74 307.4L185.15 311.99L180.56 316.58L175.97 321.17L171.38 325.76L166.79 330.35L162.2 334.94L153.23 343.91L153.01 344.13L148.42 348.72L143.83 353.31L139.24 357.9L134.65 362.49L130.06 367.08L125.47 371.67L120.88 376.26L116.29 380.85L115.88 381.26C116.11 381.31 116.34 381.36 116.58 381.41L117.39 380.6Z" fill="#9A8CF3"/>
<path d="M117.39 376L121.98 371.41L126.57 366.82L131.16 362.23L135.75 357.64L140.34 353.05L144.93 348.46L149.52 343.87L154.11 339.28L158.7 334.69L163.29 330.1L167.88 325.51L172.47 320.92L177.06 316.33L181.65 311.74L186.24 307.15L190.83 302.56L195.42 297.97L198.38 295.01C198.32 294.79 198.26 294.56 198.2 294.34L194.33 298.21L189.74 302.8L185.15 307.39L180.56 311.98L175.97 316.57L171.38 321.16L166.79 325.75L162.2 330.34L157.61 334.93L153.02 339.52L148.43 344.11L143.84 348.7L139.25 353.29L130.06 362.48L125.47 367.07L120.88 371.66L112.2 380.34C112.42 380.4 112.64 380.46 112.87 380.52L117.38 376.01L117.39 376Z" fill="#9A8CF3"/>
<path d="M112.8 376L117.39 371.41L121.98 366.82L126.57 362.23L131.16 357.64L135.75 353.05L140.34 348.46L144.93 343.87L149.52 339.28L154.11 334.69L158.7 330.1L166.13 322.67L167.88 320.92L172.47 316.33L177.06 311.74L181.65 307.15L186.24 302.56L190.83 297.97L195.42 293.38L197.32 291.48C197.25 291.27 197.18 291.05 197.11 290.84L194.33 293.62L189.74 298.21L185.15 302.8L180.56 307.39L175.97 311.98L171.38 316.57L166.79 321.16L162.2 325.75L157.61 330.34L153.02 334.93L148.43 339.52L143.84 344.11L139.25 348.7L134.66 353.29L130.07 357.88L125.48 362.47L120.89 367.06L116.3 371.65L111.71 376.24L108.72 379.23C108.93 379.3 109.15 379.37 109.36 379.44L112.81 375.99L112.8 376Z" fill="#9A8CF3"/>
<path d="M108.17 247.4C107.73 247.55 107.29 247.71 106.85 247.88L102.52 252.21L97.9301 256.8L93.3401 261.39L88.7501 265.98L84.1601 270.57L79.5701 275.16L74.9801 279.75L70.3901 284.34L65.8601 288.87C65.7001 289.31 65.5401 289.75 65.3801 290.19L66.8801 288.69L71.4701 284.1L76.0601 279.51L80.6501 274.92L85.2401 270.33L89.8301 265.74L94.4201 261.15L99.0101 256.56L103.6 251.97L108.16 247.41L108.17 247.4Z" fill="#9A8CF3"/>
<path d="M103.61 371.41L108.2 366.82L112.79 362.23L117.38 357.64L121.97 353.05L126.56 348.46L131.15 343.87L135.74 339.28L140.33 334.69L144.92 330.1L149.51 325.51L154.1 320.92L158.69 316.33L163.28 311.74L167.87 307.15L172.46 302.56L177.05 297.97L181.64 293.38L186.23 288.79L190.82 284.2L193.27 281.75C193.17 281.56 193.08 281.38 192.98 281.19L189.73 284.44L185.14 289.03L180.55 293.62L175.96 298.21L171.37 302.8L166.78 307.39L162.19 311.98L157.6 316.57L153.01 321.16L148.42 325.75L143.83 330.34L139.24 334.93L130.05 344.12L125.46 348.71L120.87 353.3L111.9 362.27L111.68 362.49L107.09 367.08L102.5 371.67L99.04 375.13C99.23 375.23 99.41 375.32 99.6 375.42L103.59 371.43L103.61 371.41Z" fill="#9A8CF3"/>
<path d="M98.5 251.63L97.92 252.21L93.33 256.8L88.74 261.39L84.15 265.98L79.56 270.57L74.97 275.16L70.38 279.75L69.61 280.52C69.3 281.1 69.01 281.68 68.72 282.26L71.48 279.5L76.07 274.91L80.66 270.32L85.25 265.73L89.84 261.14L94.43 256.55L99.02 251.96L100.24 250.74C99.65 251.03 99.07 251.33 98.5 251.63Z" fill="#9A8CF3"/>
<path d="M94.42 366.81L103.39 357.84L103.61 357.62L108.2 353.03L112.79 348.44L117.38 343.85L121.97 339.26L126.56 334.67L131.15 330.08L135.74 325.49L140.33 320.9L144.92 316.31L149.51 311.72L154.1 307.13L158.69 302.54L163.28 297.95L167.87 293.36L172.46 288.77L177.05 284.18L181.64 279.59L186.23 275L188.09 273.14C187.97 272.97 187.86 272.81 187.74 272.65L185.14 275.25L180.55 279.84L175.96 284.43L171.37 289.02L166.78 293.61L162.19 298.2L157.6 302.79L153.01 307.38L148.42 311.97L143.83 316.56L139.24 321.15L130.05 330.34L125.46 334.93L120.87 339.52L116.28 344.11L111.69 348.7L107.1 353.29L102.51 357.88L97.92 362.47L93.33 367.06L90.53 369.86C90.69 369.98 90.86 370.1 91.02 370.21L94.42 366.81Z" fill="#9A8CF3"/>
<path d="M78.51 358.9C78.64 359.05 78.78 359.2 78.91 359.35L80.64 357.62L85.23 353.03L89.82 348.44L94.41 343.85L99 339.26L103.59 334.67L108.18 330.08L112.77 325.49L117.36 320.9L121.95 316.31L126.54 311.72L131.13 307.13L135.72 302.54L140.31 297.95L144.9 293.36L149.49 288.77L154.08 284.18L158.67 279.59L163.26 275L167.85 270.41L172.44 265.82L177.03 261.23L177.22 261.04C177.07 260.91 176.92 260.77 176.77 260.64L175.94 261.47L171.35 266.06L166.76 270.65L162.17 275.24L157.58 279.83L152.99 284.42L148.4 289.01L143.81 293.6L139.22 298.19L134.63 302.78L130.04 307.37L125.45 311.96L120.86 316.55L116.27 321.14L111.68 325.73L107.09 330.32L102.5 334.91L97.91 339.5L93.32 344.09L88.73 348.68L84.14 353.27L79.55 357.86L78.52 358.89L78.51 358.9Z" fill="#9A8CF3"/>
<path d="M74.46 353.77C74.58 353.93 74.7 354.1 74.82 354.26L76.05 353.03L80.64 348.44L85.23 343.85L89.82 339.26L94.41 334.67L99 330.08L103.59 325.49L108.18 320.9L112.77 316.31L117.36 311.72L121.95 307.13L126.54 302.54L131.13 297.95L135.72 293.36L140.31 288.77L144.9 284.18L149.49 279.59L154.08 275L158.67 270.41L163.26 265.82L167.85 261.23L172.13 256.95C171.97 256.83 171.8 256.71 171.64 256.59L171.35 256.88L166.76 261.47L162.17 266.06L157.58 270.65L152.99 275.24L148.4 279.83L143.81 284.42L139.22 289.01L134.63 293.6L130.04 298.19L125.45 302.78L120.86 307.37L116.27 311.96L111.68 316.55L107.09 321.14L102.5 325.73L97.91 330.32L93.32 334.91L88.73 339.5L84.14 344.09L79.55 348.68L74.96 353.27L74.47 353.76L74.46 353.77Z" fill="#9A8CF3"/>
<path d="M76.0401 348.44L85.2301 339.25L89.8201 334.66L94.4101 330.07L101.84 322.64L103.59 320.89L108.18 316.3L112.77 311.71L117.36 307.12L121.95 302.53L126.54 297.94L131.13 293.35L135.72 288.76L140.31 284.17L144.9 279.58L149.49 274.99L154.08 270.4L158.67 265.81L163.26 261.22L167.85 256.63L169.42 255.06C169.25 254.95 169.08 254.83 168.91 254.72L166.76 256.87L162.17 261.46L157.58 266.05L152.99 270.64L148.4 275.23L143.81 279.82L139.22 284.41L134.63 289L130.04 293.59L125.45 298.18L120.86 302.77L116.27 307.36L111.68 311.95L107.09 316.54L102.5 321.13L97.9101 325.72L93.3201 330.31L88.7301 334.9L84.1401 339.49L79.5501 344.08L74.9601 348.67L72.6101 351.02C72.7201 351.19 72.8301 351.36 72.9501 351.53L76.0601 348.42L76.0401 348.44Z" fill="#9A8CF3"/>
<path d="M76.8099 356.86L80.6399 353.03L85.2299 348.44L89.8199 343.85L94.4099 339.26L98.9999 334.67L103.59 330.08L108.18 325.49L112.77 320.9L117.36 316.31L121.95 311.72L126.54 307.13L131.13 302.54L135.72 297.95L140.31 293.36L144.9 288.77L149.49 284.18L154.08 279.59L158.67 275L163.26 270.41L167.85 265.82L172.44 261.23L174.73 258.94C174.57 258.81 174.42 258.69 174.26 258.56L171.35 261.47L166.76 266.06L162.17 270.65L157.58 275.24L152.99 279.83L148.4 284.42L143.81 289.01L139.22 293.6L134.63 298.19L130.04 302.78L125.45 307.37L120.86 311.96L116.27 316.55L111.68 321.14L107.09 325.73L102.5 330.32L97.9099 334.91L88.7199 344.1L84.1299 348.69L79.5399 353.28L76.4299 356.39C76.5499 356.55 76.6799 356.7 76.8099 356.86Z" fill="#9A8CF3"/>
<path d="M70.35 344.09L69.22 345.22C69.32 345.41 69.41 345.59 69.51 345.78L71.44 343.85L76.03 339.26L80.62 334.67L85.21 330.08L89.8 325.49L94.39 320.9L98.98 316.31L103.57 311.72L108.16 307.13L112.75 302.54L117.34 297.95L121.93 293.36L126.52 288.77L131.11 284.18L135.7 279.59L140.29 275L144.88 270.41L149.47 265.82L154.06 261.23L158.65 256.64L163.24 252.05L163.63 251.66C163.45 251.56 163.26 251.46 163.08 251.37L162.15 252.3L157.56 256.89L152.97 261.48L148.38 266.07L143.79 270.66L139.2 275.25L134.61 279.84L130.02 284.43L125.43 289.02L120.84 293.61L116.25 298.2L111.66 302.79L107.07 307.38L102.48 311.97L97.89 316.56L93.3 321.15L88.71 325.74L84.12 330.33L79.53 334.92L70.56 343.89L70.34 344.11L70.35 344.09Z" fill="#9A8CF3"/>
<path d="M71.45 339.25L76.04 334.66L80.63 330.07L85.22 325.48L89.81 320.89L94.4 316.3L98.99 311.71L103.58 307.12L108.17 302.53L112.76 297.94L117.35 293.35L121.94 288.76L126.53 284.17L131.12 279.58L135.71 274.99L140.3 270.4L144.89 265.81L149.48 261.22L154.07 256.63L158.66 252.04L160.58 250.12C160.39 250.03 160.2 249.94 160 249.85L157.56 252.29L152.97 256.88L148.38 261.47L143.79 266.06L139.2 270.65L134.61 275.24L130.02 279.83L125.43 284.42L120.84 289.01L116.25 293.6L111.66 298.19L107.07 302.78L102.48 307.37L97.89 311.96L93.3 316.55L88.71 321.14L84.12 325.73L79.53 330.32L74.94 334.91L70.35 339.5L67.72 342.13C67.81 342.32 67.9 342.52 67.99 342.71L71.45 339.25Z" fill="#9A8CF3"/>
<path d="M71.1701 348.72L71.4501 348.44L76.0401 343.85L80.6301 339.26L85.2201 334.67L89.8101 330.08L94.4001 325.49L98.9901 320.9L103.58 316.31L108.17 311.72L112.76 307.13L117.35 302.54L121.94 297.95L126.53 293.36L131.12 288.77L135.71 284.18L140.3 279.59L144.89 275L149.48 270.41L154.07 265.82L158.66 261.23L163.25 256.64L166.59 253.3C166.41 253.19 166.24 253.09 166.06 252.99L162.16 256.89L157.57 261.48L152.98 266.07L148.39 270.66L143.8 275.25L139.21 279.84L134.62 284.43L130.03 289.02L125.44 293.61L120.85 298.2L116.26 302.79L111.67 307.38L107.08 311.97L102.49 316.56L97.9001 321.15L88.7101 330.34L84.1201 334.93L79.5301 339.52L74.9401 344.11L70.8401 348.21C70.9401 348.39 71.0501 348.57 71.1501 348.74L71.1701 348.72Z" fill="#9A8CF3"/>
<path d="M66.8499 293.31L71.4399 288.72L76.0299 284.13L80.6199 279.54L85.2099 274.95L89.7999 270.36L94.3899 265.77L98.9799 261.18L103.57 256.59L108.16 252L112.75 247.41L114.64 245.52C114.26 245.61 113.89 245.7 113.51 245.8L111.65 247.66L107.06 252.25L102.47 256.84L97.8799 261.43L93.2899 266.02L88.6999 270.61L84.1099 275.2L79.5199 279.79L74.9299 284.38L70.3399 288.97L65.7499 293.56L63.6999 295.61C63.5999 295.98 63.5099 296.36 63.4199 296.74L66.8499 293.31Z" fill="#9A8CF3"/>
<path d="M66.8501 325.47L71.4401 320.88L76.0301 316.29L80.6201 311.7L85.2101 307.11L89.8001 302.52L94.3901 297.93L98.9801 293.34L103.57 288.75L108.16 284.16L112.75 279.57L117.34 274.98L121.93 270.39L126.52 265.8L131.11 261.21L135.7 256.62L140.29 252.03L144.88 247.44L146.93 245.39C146.7 245.34 146.47 245.29 146.24 245.24L143.79 247.69L139.2 252.28L134.61 256.87L130.02 261.46L125.43 266.05L120.84 270.64L116.25 275.23L111.66 279.82L107.07 284.41L102.48 289L97.8901 293.59L93.3001 298.18L88.7101 302.77L84.1201 307.36L79.5301 311.95L74.9401 316.54L70.3501 321.13L65.7601 325.72L63.1101 328.37C63.1601 328.6 63.2101 328.83 63.2601 329.06L66.8501 325.47Z" fill="#9A8CF3"/>
<path d="M65.3301 336.18L66.8501 334.66L71.4401 330.07L76.0301 325.48L80.6201 320.89L85.2101 316.3L89.8001 311.71L94.3901 307.12L98.9801 302.53L103.57 297.94L108.16 293.35L112.75 288.76L117.34 284.17L121.93 279.58L126.52 274.99L131.11 270.4L135.7 265.81L140.29 261.22L144.88 256.63L149.47 252.04L154.05 247.46C153.84 247.39 153.63 247.31 153.42 247.24L152.97 247.69L148.38 252.28L143.79 256.87L139.2 261.46L134.61 266.05L130.02 270.64L125.43 275.23L120.84 279.82L116.25 284.41L111.66 289L107.07 293.59L102.48 298.18L97.8901 302.77L93.3001 307.36L88.7101 311.95L84.1201 316.54L79.5301 321.13L72.6401 328.02L70.3401 330.32L65.7501 334.91L65.1001 335.56C65.1701 335.77 65.2501 335.98 65.3201 336.19L65.3301 336.18Z" fill="#9A8CF3"/>
<path d="M66.85 330.06L71.44 325.47L76.03 320.88L80.62 316.29L85.21 311.7L89.8 307.11L94.39 302.52L98.98 297.93L103.57 293.34L108.16 288.75L112.75 284.16L117.34 279.57L121.93 274.98L126.52 270.39L131.11 265.8L135.7 261.21L140.29 256.62L144.88 252.03L149.47 247.44L150.57 246.34C150.35 246.28 150.13 246.21 149.91 246.15L148.38 247.68L143.79 252.27L139.2 256.86L134.61 261.45L130.02 266.04L125.43 270.63L120.84 275.22L116.25 279.81L111.66 284.4L107.07 288.99L102.48 293.58L97.89 298.17L93.3 302.76L88.71 307.35L84.12 311.94L79.53 316.53L74.94 321.12L70.35 325.71L65.76 330.3L64.03 332.03C64.09 332.25 64.15 332.47 64.22 332.69L66.85 330.06Z" fill="#9A8CF3"/>
<path d="M66.5901 339.51L66.8501 339.25L71.4401 334.66L76.0301 330.07L84.8801 321.22L85.2201 320.88L89.8101 316.29L94.4001 311.7L98.9901 307.11L103.58 302.52L108.17 297.93L112.76 293.34L117.35 288.75L121.94 284.16L126.53 279.57L131.12 274.98L135.71 270.39L140.3 265.8L144.89 261.21L149.48 256.62L154.07 252.03L157.39 248.71C157.19 248.63 156.99 248.54 156.79 248.46L152.98 252.27L148.39 256.86L143.8 261.45L139.21 266.04L134.62 270.63L130.03 275.22L125.44 279.81L120.85 284.4L116.26 288.99L111.67 293.58L107.08 298.17L102.49 302.76L97.9001 307.35L93.3101 311.94L88.7201 316.53L84.1301 321.12L79.5401 325.71L74.9501 330.3L70.3601 334.89L66.3501 338.9C66.4301 339.1 66.5101 339.3 66.6001 339.5L66.5901 339.51Z" fill="#9A8CF3"/>
<path d="M62.2599 307.09L66.8499 302.5L71.4399 297.91L76.0299 293.32L80.6199 288.73L85.2099 284.14L89.7999 279.55L94.3899 274.96L98.9799 270.37L103.57 265.78L108.16 261.19L112.75 256.6L117.34 252.01L121.93 247.42L125.57 243.78C125.26 243.8 124.95 243.83 124.64 243.86L120.84 247.66L116.25 252.25L111.66 256.84L107.07 261.43L102.48 266.02L97.8899 270.61L93.2999 275.2L88.7099 279.79L84.1199 284.38L79.5299 288.97L74.9399 293.56L70.3499 298.15L65.7599 302.74L61.7599 306.74C61.7299 307.05 61.6999 307.36 61.6799 307.67L62.2599 307.09Z" fill="#9A8CF3"/>
</g>
<path d="M305.65 189H196.2V370.24H305.65V189Z" fill="white" stroke="black" stroke-linecap="round" stroke-linejoin="round"/>
<path d="M400.72 210.58H318.39V360.87H400.72V210.58Z" fill="#9A8CF3"/>
<path d="M495.81 259H413.48V352.44H495.81V259Z" fill="white" stroke="black" stroke-linecap="round" stroke-linejoin="round"/>
<path d="M65.9399 285.65H7.67993V360.53H65.9399V285.65Z" fill="white" stroke="black" stroke-linecap="round" stroke-linejoin="round"/>
<path d="M111.64 108.713L110.43 109.923L107.44 112.913L104.45 115.902L101.46 118.893L98.47 121.883L95.48 124.872L92.49 127.863L89.5 130.853L86.51 133.842L80.68 139.673L80.53 139.823L77.54 142.812L74.55 145.803L71.56 148.793L68.57 151.783L67.22 153.133C67.41 153.133 67.6 153.133 67.79 153.113L69.29 151.613L72.28 148.622L75.27 145.633L78.26 142.643L81.25 139.652L84.24 136.663L87.23 133.673L90.22 130.683L93.21 127.693L96.2 124.702L99.19 121.713L102.18 118.723L105.17 115.732L108.16 112.743L111.15 109.753L111.64 109.262C111.64 109.072 111.65 108.883 111.66 108.693L111.64 108.713Z" fill="#9A8CF3"/>
<path d="M111.46 111.872L110.42 112.913L107.43 115.902L104.44 118.893L101.45 121.883L95.6201 127.713L95.4701 127.863L92.4801 130.853L89.4901 133.842L86.5001 136.833L83.5101 139.823L80.5201 142.812L77.5301 145.803L74.5401 148.793L71.5501 151.783L70.3701 152.963C70.5701 152.943 70.7801 152.932 70.9801 152.902L75.1001 148.783L75.2501 148.633L78.2401 145.643L81.2301 142.652L84.2201 139.663L87.2101 136.673L90.2001 133.683L93.1901 130.693L96.1801 127.702L99.1701 124.713L102.16 121.723L105.15 118.732L108.14 115.743L111.13 112.753L111.4 112.482C111.42 112.282 111.44 112.082 111.46 111.872Z" fill="#9A8CF3"/>
<path d="M87.3401 147.932C87.7501 147.722 88.1501 147.502 88.5501 147.272L90.2401 145.582L93.2301 142.592L96.2201 139.602L99.2101 136.612L102.2 133.622L105.19 130.632L105.87 129.952C106.09 129.552 106.31 129.152 106.53 128.742L104.49 130.782L101.5 133.772L95.6701 139.602L95.5201 139.752L92.5301 142.742L89.5401 145.732L87.3601 147.912L87.3401 147.932Z" fill="#9A8CF3"/>
<path d="M81.97 150.323C82.27 150.213 82.56 150.102 82.86 149.982L84.26 148.583L87.25 145.592L90.24 142.603L93.23 139.613L96.22 136.622L99.21 133.633L102.2 130.643L105.19 127.652L108.18 124.663L108.57 124.273C108.69 123.973 108.8 123.683 108.91 123.383L107.47 124.823L104.48 127.812L101.49 130.803L98.5 133.793L95.51 136.783L92.52 139.773L89.53 142.762L86.54 145.753L81.97 150.323Z" fill="#9A8CF3"/>
<path d="M81.2799 148.582L84.2699 145.592L87.2599 142.602L90.2499 139.612L93.2399 136.622L96.2299 133.632L99.2199 130.642L102.21 127.652L105.2 124.662L108.19 121.672L110.07 119.792C110.14 119.542 110.21 119.292 110.27 119.042L107.48 121.832L104.49 124.822L101.5 127.812L98.5099 130.802L95.5199 133.792L92.5299 136.782L89.5399 139.772L86.5499 142.762L83.5599 145.752L80.5699 148.742L77.6399 151.672C77.8899 151.612 78.1399 151.542 78.3899 151.472L81.2799 148.582Z" fill="#9A8CF3"/>
<path d="M78.2901 148.582L81.2801 145.592L84.2701 142.602L90.1001 136.772L90.2501 136.622L93.2401 133.632L96.2301 130.642L102.2 124.672L105.19 121.682L108.18 118.692L110.94 115.932C110.98 115.712 111.02 115.492 111.05 115.262L108.95 117.352L107.46 118.842L104.47 121.832L101.48 124.822L98.4901 127.812L95.5001 130.802L92.5101 133.792L89.5201 136.782L86.5301 139.772L83.5401 142.762L80.5501 145.752L77.5601 148.742L74.5701 151.732L73.8301 152.472C74.0501 152.432 74.2701 152.402 74.5001 152.362L75.2901 151.572L78.2801 148.582H78.2901Z" fill="#9A8CF3"/>
<path d="M37.9401 72.4925C35.4101 74.5325 33.1001 76.8425 31.0601 79.3725L33.5101 76.9225L36.5001 73.9325L37.9501 72.4825L37.9401 72.4925Z" fill="#9A8CF3"/>
<path d="M111.04 100.352L110.42 100.972L107.43 103.962L104.44 106.952L101.45 109.942L98.4601 112.932L95.4701 115.922L92.4801 118.912L89.4901 121.902L86.5001 124.892L83.5101 127.882L80.5201 130.872L77.5301 133.862L74.5401 136.852L71.5501 139.842L68.5601 142.832L65.5701 145.822L62.5801 148.812L59.5901 151.802L58.8401 152.552C59.0001 152.582 59.1501 152.602 59.3101 152.632L63.2901 148.652L66.2801 145.662L69.2701 142.672L75.1001 136.842L75.2501 136.692L78.2401 133.702L81.2301 130.712L84.2201 127.722L87.2101 124.732L90.2001 121.742L93.1901 118.752L96.1801 115.762L99.1701 112.772L102.16 109.782L105.15 106.792L108.14 103.802L111.11 100.832C111.09 100.672 111.06 100.522 111.03 100.362L111.04 100.352Z" fill="#9A8CF3"/>
<path d="M111.4 102.982L110.43 103.952L107.44 106.942L104.45 109.932L101.46 112.922L96.98 117.402L95.49 118.892L92.5 121.882L89.51 124.872L86.52 127.862L83.53 130.852L80.54 133.842L77.55 136.832L74.56 139.822L71.57 142.812L68.58 145.802L65.59 148.792L62.6 151.782L61.49 152.892C61.66 152.912 61.82 152.922 61.99 152.942L63.31 151.622L66.3 148.632L69.29 145.642L72.28 142.652L75.27 139.662L78.26 136.672L81.25 133.682L84.24 130.692L90.21 124.722L93.2 121.732L96.19 118.742L101.02 113.912L102.16 112.772L105.15 109.782L108.14 106.792L111.13 103.802L111.44 103.492C111.42 103.322 111.41 103.152 111.39 102.992L111.4 102.982Z" fill="#9A8CF3"/>
<path d="M111.6 105.763L110.42 106.943L107.43 109.933L104.44 112.923L101.45 115.913L98.46 118.902L95.47 121.893L92.48 124.883L89.49 127.872L86.5 130.863L83.51 133.853L80.52 136.842L77.53 139.833L74.54 142.823L71.55 145.812L65.58 151.783L64.26 153.103C64.44 153.103 64.61 153.112 64.79 153.122L66.29 151.622L69.28 148.633L72.27 145.643L75.26 142.652L78.25 139.663L81.24 136.673L84.23 133.683L87.22 130.693L90.21 127.702L93.2 124.713L96.19 121.723L99.18 118.732L102.17 115.743L105.16 112.753L108.15 109.762L111.14 106.773L111.63 106.283C111.63 106.103 111.62 105.933 111.61 105.753L111.6 105.763Z" fill="#9A8CF3"/>
<path d="M107.55 88.9225L107.44 89.0325L104.45 92.0225L101.46 95.0125L98.4699 98.0025L95.4799 100.992L92.4899 103.982L89.4999 106.972L86.5099 109.962L83.5199 112.952L80.5299 115.942L77.5399 118.932L74.5499 121.922L71.5599 124.912L68.5699 127.902L65.5799 130.892L62.5899 133.882L59.5999 136.872L56.6099 139.862L53.6199 142.852L50.6299 145.842L47.6399 148.832L47.3999 149.072C47.5299 149.132 47.6499 149.192 47.7799 149.242L48.2099 148.812L48.3599 148.662L51.3499 145.672L54.3399 142.682L57.3299 139.692L60.3199 136.702L63.3099 133.712L66.2999 130.722L69.2899 127.732L72.2799 124.742L75.2699 121.752L78.2599 118.762L81.2499 115.772L84.2399 112.782L87.2299 109.792L90.2199 106.802L93.2099 103.812L96.1999 100.822L99.1899 97.8325L102.18 94.8425L105.17 91.8525L107.73 89.3025C107.67 89.1725 107.62 89.0525 107.56 88.9225H107.55Z" fill="#9A8CF3"/>
<path d="M108.6 91.4025C108.55 91.2725 108.5 91.1425 108.44 91.0025L107.44 92.0025L104.45 94.9925L101.46 97.9825L98.47 100.973L95.48 103.963L92.49 106.952L89.5 109.943L86.51 112.933L82.03 117.413L80.54 118.902L77.55 121.893L74.56 124.883L71.57 127.872L68.58 130.863L65.59 133.853L62.6 136.842L59.61 139.833L56.62 142.823L53.63 145.812L50.64 148.803L49.5 149.943C49.63 149.993 49.76 150.043 49.9 150.103L51.35 148.652L54.34 145.663L57.33 142.673L63.3 136.702L66.29 133.713L69.28 130.723L75.25 124.753L78.24 121.762L81.23 118.773L84.22 115.783L87.21 112.793L90.2 109.803L93.19 106.812L96.18 103.823L99.17 100.833L102.16 97.8425L105.15 94.8525L108.14 91.8625L108.59 91.4125L108.6 91.4025Z" fill="#9A8CF3"/>
<path d="M104.37 83.1425L101.47 86.0425L98.4801 89.0325L95.4901 92.0225L92.5001 95.0125L89.5101 98.0025L86.5201 100.992L83.5301 103.982L80.5401 106.972L77.5501 109.962L74.5601 112.952L71.5701 115.942L68.5801 118.932L65.5901 121.922L62.6001 124.912L59.6101 127.902L56.6201 130.892L53.6301 133.882L50.6401 136.872L47.6501 139.862L44.6601 142.852L41.6701 145.842L41.6201 145.892C41.7301 145.962 41.8401 146.042 41.9501 146.112L42.3701 145.692L45.3601 142.702L48.3501 139.712L51.3401 136.722L54.3301 133.732L57.3201 130.742L63.2901 124.772L66.2801 121.782L69.2701 118.792L74.1001 113.962L75.2401 112.822L78.2301 109.832L81.2201 106.842L84.2101 103.852L87.2001 100.862L90.1901 97.8725L93.1801 94.8825L96.1701 91.8925L99.1601 88.9025L102.15 85.9125L104.56 83.5025C104.49 83.3925 104.42 83.2825 104.34 83.1725L104.37 83.1425Z" fill="#9A8CF3"/>
<path d="M105.71 85.3425C105.64 85.2225 105.58 85.1125 105.51 84.9925L104.46 86.0425L101.47 89.0325L98.48 92.0225L95.49 95.0125L92.5 98.0025L89.51 100.992L86.52 103.982L83.53 106.972L80.54 109.963L77.55 112.952L74.56 115.942L71.57 118.933L68.58 121.922L65.59 124.912L62.6 127.902L59.61 130.892L56.62 133.882L53.63 136.872L50.64 139.862L47.65 142.853L44.66 145.842L43.47 147.032C43.59 147.102 43.7 147.172 43.82 147.232L45.37 145.683L48.36 142.692L51.35 139.702L54.34 136.713L57.33 133.722L60.32 130.732L63.31 127.743L66.3 124.752L69.29 121.762L72.28 118.772L75.27 115.782L78.26 112.793L81.25 109.802L84.24 106.812L87.23 103.822L90.22 100.832L93.21 97.8425L96.2 94.8525L99.19 91.8625L102.18 88.8725L105.17 85.8825L105.71 85.3425Z" fill="#9A8CF3"/>
<path d="M100.77 78.3325C100.69 78.2325 100.6 78.1325 100.52 78.0325L98.48 80.0725L95.49 83.0625L92.5 86.0525L89.51 89.0425L86.52 92.0325L83.53 95.0225L80.54 98.0125L77.55 101.002L74.56 103.992L71.57 106.982L68.58 109.972L65.59 112.962L62.6 115.952L59.61 118.942L56.62 121.932L53.63 124.922L50.64 127.912L47.65 130.902L44.66 133.892L38.69 139.862L36.52 142.032C36.62 142.122 36.72 142.202 36.82 142.282L39.4 139.702L42.39 136.712L45.38 133.722L48.37 130.732L51.36 127.742L54.35 124.752L57.34 121.762L60.33 118.772L63.32 115.782L66.31 112.792L69.3 109.802L72.29 106.812L75.28 103.822L78.27 100.832L81.26 97.8425L84.25 94.8525L87.24 91.8625L90.23 88.8725L93.22 85.8825L96.21 82.8925L99.2 79.9025L100.78 78.3225L100.77 78.3325Z" fill="#9A8CF3"/>
<path d="M99.36 76.7625C99.27 76.6725 99.18 76.5725 99.09 76.4825L98.48 77.0925L95.4899 80.0825L92.5 83.0725L89.51 86.0625L86.5199 89.0525L83.5299 92.0425L80.54 95.0325L77.55 98.0225L74.5599 101.012L71.57 104.002L68.58 106.992L65.5899 109.982L62.5999 112.972L59.61 115.962L56.62 118.952L53.63 121.942L50.6399 124.932L47.65 127.922L44.66 130.912L41.6699 133.902L38.68 136.892L35.6899 139.882L34.95 140.622C35.04 140.712 35.1399 140.802 35.2299 140.892L36.4 139.722L39.3899 136.732L42.38 133.742L45.3699 130.752L48.36 127.762L51.3499 124.772L54.34 121.782L57.33 118.792L63.08 113.042L63.3 112.822L66.29 109.832L69.2799 106.842L72.2699 103.852L75.26 100.862L78.25 97.8725L81.2399 94.8825L84.23 91.8925L87.22 88.9025L90.2099 85.9125L93.1999 82.9225L96.19 79.9325L99.1799 76.9425L99.3499 76.7725L99.36 76.7625Z" fill="#9A8CF3"/>
<path d="M102.11 79.9725C102.03 79.8725 101.95 79.7625 101.87 79.6625L101.47 80.0625L98.4799 83.0525L95.4899 86.0425L92.4999 89.0325L89.5099 92.0225L86.5199 95.0125L83.5299 98.0025L80.5399 100.992L77.5499 103.982L74.5599 106.972L71.5699 109.962L68.5799 112.952L65.5899 115.942L62.5999 118.932L59.6099 121.922L53.7799 127.752L53.6299 127.902L50.6399 130.892L47.6499 133.882L44.6599 136.872L41.6699 139.862L38.6799 142.852L38.1399 143.392C38.2399 143.472 38.3499 143.552 38.4499 143.632L39.3899 142.692L42.3799 139.702L45.3699 136.712L48.3599 133.722L51.3499 130.732L54.3399 127.742L57.3299 124.752L60.3199 121.762L63.3099 118.772L66.2999 115.782L69.2899 112.792L72.2799 109.802L75.2699 106.812L78.2599 103.822L81.2499 100.832L84.2399 97.8425L87.2299 94.8525L90.2199 91.8625L93.2099 88.8725L96.1999 85.8825L99.1899 82.8925L102.11 79.9725Z" fill="#9A8CF3"/>
<path d="M97.88 75.2525C97.79 75.1625 97.7 75.0725 97.6 74.9825L95.5 77.0825L92.51 80.0725L89.52 83.0625L86.53 86.0525L83.54 89.0425L80.55 92.0325L77.56 95.0225L74.57 98.0125L71.58 101.002L68.59 103.992L65.6 106.982L62.61 109.972L59.62 112.962L55.14 117.442L53.65 118.932L50.66 121.922L47.67 124.912L44.68 127.902L41.69 130.892L38.7 133.882L35.71 136.872L33.48 139.102C33.57 139.192 33.66 139.292 33.75 139.382L36.42 136.712L39.41 133.722L42.4 130.732L48.37 124.762L51.36 121.772L54.35 118.782L57.34 115.792L60.33 112.802L63.32 109.812L66.31 106.822L69.3 103.832L72.29 100.842L75.28 97.8525L78.27 94.8625L81.26 91.8725L84.25 88.8825L87.24 85.8925L90.23 82.9025L93.22 79.9125L96.21 76.9225L97.88 75.2525Z" fill="#9A8CF3"/>
<path d="M71.6101 65.1425L68.6201 68.1325L65.6301 71.1225L62.6401 74.1125L59.6501 77.1025L56.6601 80.0925L53.6701 83.0825L50.6801 86.0725L47.6901 89.0625L44.7001 92.0525L41.7101 95.0425L38.7201 98.0325L35.7301 101.023L32.7401 104.013L29.7501 107.003L26.7601 109.993L23.7701 112.983L21.5701 115.183C21.6001 115.343 21.6201 115.503 21.6501 115.653L24.4801 112.823L27.4701 109.833L30.4601 106.843L33.4501 103.853L36.4401 100.863L39.4301 97.8725L42.4201 94.8825L45.4101 91.8925L48.4001 88.9025L51.3901 85.9125L54.3801 82.9225L57.3701 79.9325L60.3601 76.9425L63.3501 73.9525L66.3401 70.9625L69.3301 67.9725L72.3201 64.9825L74.1501 63.1525C73.9901 63.1225 73.8401 63.1025 73.6801 63.0725L71.6101 65.1425Z" fill="#9A8CF3"/>
<path d="M68.62 65.1425L65.63 68.1325L62.64 71.1225L59.65 74.1125L56.66 77.1025L53.67 80.0925L50.68 83.0825L47.69 86.0725L44.7 89.0625L41.71 92.0525L38.72 95.0425L35.73 98.0325L32.74 101.023L29.75 104.013L26.76 107.003L23.77 109.993L21.22 112.543C21.24 112.713 21.26 112.873 21.28 113.033L21.5 112.813L24.49 109.823L27.48 106.833L30.47 103.843L33.46 100.853L36.45 97.8625L39.44 94.8725L42.43 91.8825L45.42 88.8925L48.41 85.9025L51.4 82.9125L54.39 79.9225L57.38 76.9325L60.37 73.9425L63.36 70.9525L66.35 67.9625L69.34 64.9725L71.55 62.7625C71.39 62.7425 71.22 62.7225 71.06 62.7025L68.63 65.1325L68.62 65.1425Z" fill="#9A8CF3"/>
<path d="M65.64 65.1425L62.65 68.1325L59.66 71.1225L56.67 74.1125L53.68 77.1025L50.69 80.0925L47.7 83.0825L44.71 86.0725L41.72 89.0625L38.73 92.0525L35.74 95.0425L32.75 98.0325L29.76 101.022L26.77 104.012L23.78 107.002L21.03 109.752C21.03 109.932 21.04 110.102 21.05 110.282L21.5 109.832L24.49 106.842L27.48 103.852L30.47 100.862L33.46 97.8725L36.45 94.8825L39.44 91.8925L42.43 88.9025L45.42 85.9125L48.41 82.9225L51.4 79.9325L54.39 76.9425L57.38 73.9525L60.37 70.9625L63.36 67.9725L66.35 64.9825L68.79 62.5425C68.61 62.5425 68.44 62.5225 68.26 62.5225L65.64 65.1425Z" fill="#9A8CF3"/>
<path d="M62.65 65.1425L59.66 68.1325L56.67 71.1225L53.68 74.1125L50.69 77.1025L47.7 80.0925L44.71 83.0825L41.72 86.0725L38.73 89.0625L35.74 92.0525L32.75 95.0425L29.76 98.0325L26.77 101.022L23.78 104.012L21 106.792C21 106.982 21 107.162 21 107.352L21.51 106.842L24.5 103.852L27.49 100.862L30.48 97.8725L33.47 94.8825L36.46 91.8925L39.45 88.9025L42.44 85.9125L45.43 82.9225L48.42 79.9325L51.41 76.9425L54.4 73.9525L57.39 70.9625L60.38 67.9725L63.37 64.9825L65.87 62.4825C65.68 62.4825 65.5 62.4825 65.31 62.4825L62.66 65.1325L62.65 65.1425Z" fill="#9A8CF3"/>
<path d="M56.68 65.1424L53.69 68.1325L50.7 71.1225L47.71 74.1124L44.72 77.1024L41.73 80.0925L38.74 83.0825L35.75 86.0724L32.76 89.0624L29.77 92.0525L26.78 95.0424L23.79 98.0324L21.64 100.182C21.6 100.402 21.56 100.622 21.53 100.842L24.5 97.8725L27.49 94.8825L30.48 91.8924L33.47 88.9025L36.46 85.9125L39.45 82.9224L42.44 79.9324L45.43 76.9425L48.42 73.9525L51.41 70.9624L54.4 67.9725L57.39 64.9825L59.36 63.0125C59.14 63.0425 58.92 63.0825 58.7 63.1225L56.68 65.1424Z" fill="#9A8CF3"/>
<path d="M57.3899 151.562L60.3799 148.572L63.3699 145.582L66.3599 142.592L69.3499 139.602L72.3399 136.612L75.3299 133.622L78.3199 130.632L81.3099 127.642L84.2999 124.652L87.2899 121.662L90.2799 118.672L93.2699 115.682L96.2599 112.692L99.2499 109.702L102.24 106.712L105.23 103.722L108.22 100.732L110.72 98.2325C110.69 98.0825 110.66 97.9325 110.62 97.7825L110.49 97.9125L107.5 100.902L104.51 103.892L101.52 106.882L98.5299 109.872L95.5399 112.862L92.5499 115.852L89.5599 118.842L86.5699 121.832L80.7399 127.662L80.5899 127.812L77.5999 130.802L74.6099 133.792L71.6199 136.782L68.6299 139.772L65.6399 142.762L62.6499 145.752L59.6599 148.742L56.6699 151.732L56.3999 152.002C56.5499 152.032 56.6999 152.072 56.8499 152.102L57.3799 151.572L57.3899 151.562Z" fill="#9A8CF3"/>
<path d="M57.39 148.582L60.38 145.592L63.37 142.602L66.36 139.612L69.35 136.622L72.34 133.632L75.33 130.642L78.32 127.652L81.31 124.662L84.3 121.672L87.29 118.682L90.28 115.692L93.27 112.702L96.26 109.712L99.25 106.722L102.24 103.732L105.23 100.742L108.22 97.7525L110.14 95.8325C110.1 95.6925 110.06 95.5425 110.02 95.4025L107.5 97.9225L104.51 100.912L101.52 103.902L98.53 106.892L95.54 109.882L92.55 112.872L89.56 115.862L86.57 118.852L83.58 121.842L80.59 124.832L77.6 127.822L74.61 130.812L71.62 133.802L65.65 139.772L62.66 142.762L59.67 145.752L54.03 151.392C54.17 151.432 54.32 151.472 54.46 151.512L57.39 148.582Z" fill="#9A8CF3"/>
<path d="M54.4 148.583L57.39 145.592L60.38 142.603L63.37 139.613L66.36 136.622L69.35 133.633L72.34 130.643L75.33 127.652L78.32 124.663L81.31 121.673L84.3 118.683L89.13 113.853L90.27 112.713L93.26 109.723L96.25 106.732L99.24 103.743L102.23 100.753L105.22 97.7625L108.21 94.7725L109.44 93.5425C109.39 93.4025 109.35 93.2625 109.3 93.1325L107.49 94.9425L104.5 97.9325L101.51 100.923L98.52 103.913L95.53 106.902L92.54 109.893L89.55 112.883L86.56 115.872L83.57 118.863L80.58 121.853L77.59 124.842L74.6 127.833L71.61 130.823L68.62 133.812L65.63 136.803L62.64 139.793L59.65 142.783L56.66 145.773L53.67 148.762L51.73 150.702C51.87 150.752 52.01 150.792 52.14 150.842L54.38 148.603L54.4 148.583Z" fill="#9A8CF3"/>
<path d="M51.4 65.0025C51.11 65.1025 50.83 65.2025 50.54 65.3125L47.72 68.1325L44.73 71.1225L41.74 74.1125L38.75 77.1025L35.76 80.0925L32.77 83.0825L29.78 86.0725L26.79 89.0625L23.85 92.0025C23.74 92.2925 23.64 92.5725 23.54 92.8625L24.52 91.8825L27.51 88.8925L30.5 85.9025L33.49 82.9125L36.48 79.9225L39.47 76.9325L42.46 73.9425L45.45 70.9525L48.44 67.9625L51.41 64.9925L51.4 65.0025Z" fill="#9A8CF3"/>
<path d="M48.43 145.592L51.42 142.602L54.41 139.612L57.4 136.622L60.39 133.632L63.38 130.642L66.37 127.652L69.36 124.662L72.35 121.672L75.34 118.682L78.33 115.692L81.32 112.702L84.31 109.712L87.3 106.722L90.29 103.732L93.28 100.742L96.27 97.7525L99.26 94.7625L102.25 91.7725L105.24 88.7825L106.83 87.1925C106.77 87.0725 106.71 86.9525 106.64 86.8325L104.53 88.9425L101.54 91.9325L98.55 94.9225L95.56 97.9125L92.57 100.902L89.58 103.892L86.59 106.882L83.6 109.872L80.61 112.862L77.62 115.852L74.63 118.842L71.64 121.832L65.67 127.802L62.68 130.792L59.69 133.782L53.86 139.612L53.71 139.762L50.72 142.752L47.73 145.742L45.48 147.992C45.6 148.052 45.72 148.122 45.84 148.182L48.44 145.582L48.43 145.592Z" fill="#9A8CF3"/>
<path d="M45.11 67.7525L44.73 68.1325L41.74 71.1225L38.75 74.1125L35.76 77.1025L32.77 80.0925L29.78 83.0825L26.79 86.0725L26.29 86.5725C26.09 86.9425 25.9 87.3225 25.71 87.7025L27.5 85.9125L30.49 82.9225L33.48 79.9325L36.47 76.9425L39.46 73.9525L42.45 70.9625L45.44 67.9725L46.24 67.1725C45.86 67.3625 45.48 67.5525 45.11 67.7525Z" fill="#9A8CF3"/>
<path d="M42.4599 142.612L48.2899 136.782L48.4399 136.632L51.4299 133.642L54.4199 130.652L57.4099 127.662L60.3999 124.672L63.3899 121.682L66.3799 118.692L69.3699 115.702L72.3599 112.712L75.3499 109.722L78.3399 106.732L81.3299 103.742L84.3199 100.752L87.3099 97.7625L90.2999 94.7725L93.2899 91.7825L96.2799 88.7925L99.2699 85.8025L102.26 82.8125L103.47 81.6025C103.39 81.4925 103.32 81.3925 103.24 81.2825L101.55 82.9725L98.5599 85.9625L95.5699 88.9525L92.5799 91.9425L89.5899 94.9325L86.5999 97.9225L83.6099 100.912L80.6199 103.902L77.6299 106.892L74.6399 109.882L71.6499 112.872L65.6799 118.842L62.6899 121.832L59.6999 124.822L56.7099 127.812L53.7199 130.802L50.7299 133.792L47.7399 136.782L44.7499 139.772L41.7599 142.762L39.9399 144.582C40.0499 144.662 40.1499 144.732 40.2599 144.812L42.4699 142.602L42.4599 142.612Z" fill="#9A8CF3"/>
<path d="M32.1201 137.472C32.2101 137.572 32.2901 137.662 32.3801 137.762L33.5001 136.642L36.4901 133.652L39.4801 130.662L42.4701 127.672L45.4601 124.682L48.4501 121.692L51.4401 118.702L54.4301 115.712L57.4201 112.722L60.4101 109.732L63.4001 106.742L66.3901 103.752L69.3801 100.762L72.3701 97.7725L75.3601 94.7825L78.3501 91.7925L81.3401 88.8025L84.3301 85.8125L87.3201 82.8225L90.3101 79.8325L93.3001 76.8425L96.2901 73.8525L96.4101 73.7325C96.3101 73.6425 96.2201 73.5625 96.1201 73.4725L95.5801 74.0125L92.5901 77.0025L89.6001 79.9925L86.6101 82.9825L83.6201 85.9725L80.6301 88.9625L77.6401 91.9525L74.6501 94.9425L71.6601 97.9325L68.6701 100.922L65.6801 103.912L62.6901 106.902L59.7001 109.892L56.7101 112.882L53.7201 115.872L50.7301 118.862L47.7401 121.852L44.7501 124.842L41.7601 127.832L38.7701 130.822L35.7801 133.812L32.7901 136.802L32.1201 137.472Z" fill="#9A8CF3"/>
<path d="M29.49 134.132C29.57 134.242 29.64 134.342 29.72 134.452L30.52 133.652L33.51 130.662L36.5 127.672L39.49 124.682L42.48 121.692L45.47 118.702L48.46 115.712L51.45 112.722L54.44 109.732L57.43 106.742L60.42 103.752L63.41 100.762L66.4 97.7725L69.39 94.7825L72.38 91.7925L75.37 88.8025L78.36 85.8125L81.35 82.8225L84.34 79.8325L87.33 76.8425L90.32 73.8525L93.1 71.0725C92.99 70.9925 92.89 70.9125 92.78 70.8425L92.59 71.0325L89.6 74.0225L86.61 77.0125L83.62 80.0025L80.63 82.9925L77.64 85.9825L74.65 88.9725L71.66 91.9625L68.67 94.9525L65.68 97.9425L62.69 100.932L59.7 103.922L56.71 106.912L53.72 109.902L50.73 112.892L47.74 115.882L44.75 118.872L41.76 121.862L38.77 124.852L35.78 127.842L32.79 130.832L29.8 133.822L29.48 134.142L29.49 134.132Z" fill="#9A8CF3"/>
<path d="M30.52 130.662L36.49 124.692L39.48 121.702L42.47 118.712L47.3 113.882L48.44 112.742L51.43 109.752L54.42 106.762L57.41 103.772L60.4 100.782L63.39 97.7925L66.38 94.8025L69.37 91.8125L72.36 88.8225L75.35 85.8325L78.34 82.8425L81.33 79.8525L84.32 76.8625L87.31 73.8725L90.3 70.8825L91.32 69.8625C91.21 69.7925 91.1 69.7125 90.99 69.6425L89.59 71.0425L86.6 74.0325L83.61 77.0225L80.62 80.0125L77.63 83.0025L74.64 85.9925L71.65 88.9825L68.66 91.9725L65.67 94.9625L62.68 97.9525L59.69 100.942L56.7 103.932L53.71 106.922L50.72 109.912L47.73 112.902L44.74 115.892L41.75 118.882L38.76 121.872L35.77 124.862L32.78 127.852L29.79 130.842L28.26 132.372C28.33 132.482 28.41 132.592 28.48 132.702L30.5 130.682L30.52 130.662Z" fill="#9A8CF3"/>
<path d="M31.0201 136.142L33.51 133.652L36.5 130.662L39.4901 127.672L42.48 124.682L45.4701 121.692L48.46 118.702L51.4501 115.712L54.44 112.722L57.43 109.732L60.42 106.742L63.4101 103.752L66.4001 100.762L69.39 97.7725L72.38 94.7825L75.3701 91.7925L78.3601 88.8025L81.35 85.8125L84.34 82.8225L87.3301 79.8325L90.32 76.8425L93.31 73.8525L94.8 72.3625C94.7 72.2825 94.6 72.2025 94.5 72.1125L92.6101 74.0025L89.6201 76.9925L86.63 79.9825L83.64 82.9725L80.6501 85.9625L77.6601 88.9525L74.67 91.9425L71.68 94.9325L68.6901 97.9225L65.7 100.912L62.71 103.902L59.7201 106.892L56.7301 109.882L53.7401 112.872L50.75 115.862L47.76 118.852L44.7701 121.842L38.8 127.812L35.8101 130.802L32.82 133.792L30.8 135.812C30.88 135.912 30.96 136.012 31.05 136.122L31.0201 136.142Z" fill="#9A8CF3"/>
<path d="M26.8201 127.842L26.0901 128.572C26.1501 128.692 26.2201 128.812 26.2801 128.932L27.5401 127.672L30.5301 124.682L33.5201 121.692L36.5101 118.702L39.5001 115.712L42.4901 112.722L45.4801 109.732L48.4701 106.742L51.4601 103.752L54.4501 100.762L57.4401 97.7725L60.4301 94.7825L63.4201 91.7925L66.4101 88.8025L69.4001 85.8125L72.3901 82.8225L75.3801 79.8325L78.3701 76.8425L81.3601 73.8525L84.3501 70.8625L87.3401 67.8725L87.6001 67.6125C87.4801 67.5525 87.3601 67.4825 87.2401 67.4225L86.6301 68.0325L83.6401 71.0225L80.6501 74.0125L77.6601 77.0025L74.6701 79.9925L71.6801 82.9825L68.6901 85.9725L65.7001 88.9625L62.7101 91.9525L59.7201 94.9425L56.7301 97.9325L53.7401 100.922L50.7501 103.912L47.7601 106.902L44.7701 109.892L41.7801 112.882L38.7901 115.872L35.8001 118.862L32.8101 121.852L26.9801 127.682L26.8301 127.832L26.8201 127.842Z" fill="#9A8CF3"/>
<path d="M27.5301 124.693L30.5201 121.703L33.5101 118.713L36.5001 115.723L39.4901 112.733L42.4801 109.743L45.4701 106.753L48.4601 103.763L51.4501 100.773L54.4401 97.7825L57.4301 94.7925L60.4201 91.8025L63.4101 88.8125L66.4001 85.8225L69.3901 82.8325L72.3801 79.8425L75.3701 76.8525L78.3601 73.8625L81.3501 70.8725L84.3401 67.8825L85.5901 66.6325C85.4701 66.5725 85.3401 66.5125 85.2101 66.4525L83.6301 68.0325L80.6401 71.0225L77.6501 74.0125L74.6601 77.0025L71.6701 79.9925L68.6801 82.9825L65.6901 85.9725L62.7001 88.9625L59.7101 91.9525L56.7201 94.9425L53.7301 97.9325L50.7401 100.923L47.7501 103.913L44.7601 106.903L41.7701 109.893L38.7801 112.883L35.7901 115.873L32.8001 118.863L29.8101 121.853L26.8201 124.843L25.1101 126.553C25.1701 126.683 25.2301 126.803 25.2901 126.933L27.5401 124.683L27.5301 124.693Z" fill="#9A8CF3"/>
<path d="M27.3499 130.853L27.5299 130.673L30.5199 127.683L33.5099 124.693L36.4999 121.702L39.4899 118.713L42.4799 115.723L45.4699 112.732L48.4599 109.743L51.4499 106.753L54.4399 103.763L57.4299 100.773L60.4199 97.7825L63.4099 94.7925L66.3999 91.8025L69.3899 88.8125L72.3799 85.8225L75.3699 82.8325L78.3599 79.8425L81.3499 76.8525L84.3399 73.8625L87.3299 70.8725L89.4999 68.7025C89.3799 68.6325 89.2699 68.5625 89.1499 68.5025L86.6199 71.0325L83.6299 74.0225L80.6399 77.0125L77.6499 80.0025L74.6599 82.9925L71.6699 85.9825L68.6799 88.9725L65.6899 91.9625L62.6999 94.9525L59.7099 97.9425L56.7199 100.933L53.7299 103.923L50.7399 106.913L47.7499 109.902L44.7599 112.893L38.7899 118.863L35.7999 121.853L32.8099 124.842L29.8199 127.833L27.1599 130.493C27.2299 130.613 27.2999 130.722 27.3599 130.842L27.3499 130.853Z" fill="#9A8CF3"/>
<path d="M24.5501 94.8425L27.5401 91.8525L30.5301 88.8625L33.5201 85.8725L36.5101 82.8825L39.5001 79.8925L42.4901 76.9025L45.4801 73.9125L48.4701 70.9225L51.4601 67.9325L54.4501 64.9425L55.6801 63.7125C55.4401 63.7725 55.1901 63.8325 54.9501 63.8925L53.7401 65.1025L50.7501 68.0925L47.7601 71.0825L44.7701 74.0725L41.7801 77.0625L38.7901 80.0525L35.8001 83.0425L32.8101 86.0325L29.8201 89.0225L26.8301 92.0125L23.8401 95.0025L22.5101 96.3325C22.4501 96.5725 22.3901 96.8225 22.3301 97.0625L24.5601 94.8325L24.5501 94.8425Z" fill="#9A8CF3"/>
<path d="M24.5501 115.742L27.5401 112.752L30.5301 109.762L33.5201 106.772L36.5101 103.782L39.5001 100.792L42.4901 97.8025L45.4801 94.8125L48.4701 91.8225L51.4601 88.8325L54.4501 85.8425L57.4401 82.8525L60.4301 79.8625L63.4201 76.8725L66.4101 73.8825L69.4001 70.8925L72.3901 67.9025L75.3801 64.9125L76.7101 63.5825C76.5601 63.5525 76.4101 63.5125 76.2601 63.4825L74.6701 65.0725L71.6801 68.0625L68.6901 71.0525L65.7001 74.0425L62.7101 77.0325L59.7201 80.0225L56.7301 83.0125L53.7401 86.0025L50.7501 88.9925L47.7601 91.9825L44.7701 94.9725L41.7801 97.9625L38.7901 100.952L35.8001 103.942L32.8101 106.932L29.8201 109.922L26.8301 112.912L23.8401 115.902L22.1201 117.622C22.1501 117.772 22.1801 117.922 22.2201 118.072L24.5501 115.742Z" fill="#9A8CF3"/>
<path d="M23.5599 122.702L24.5499 121.712L27.5399 118.722L30.5299 115.732L33.5199 112.742L36.5099 109.752L39.4999 106.762L42.4899 103.772L45.4799 100.782L48.4699 97.7925L51.4599 94.8025L54.4499 91.8125L57.4399 88.8225L60.4299 85.8325L63.4199 82.8425L66.4099 79.8525L69.3999 76.8625L72.3899 73.8725L75.3799 70.8825L78.3699 67.8925L81.3399 64.9225C81.1999 64.8725 81.0699 64.8225 80.9299 64.7825L80.6399 65.0725L77.6499 68.0625L74.6599 71.0525L71.6699 74.0425L68.6799 77.0325L65.6899 80.0225L62.6999 83.0125L59.7099 86.0025L56.7199 88.9925L53.7299 91.9825L50.7399 94.9725L47.7499 97.9625L44.7599 100.952L41.7699 103.942L38.7799 106.932L35.7899 109.922L32.7999 112.912L28.3199 117.392L26.8299 118.882L23.8399 121.872L23.4199 122.292C23.4699 122.432 23.5199 122.562 23.5599 122.702Z" fill="#9A8CF3"/>
<path d="M24.55 118.723L27.54 115.733L30.53 112.743L33.52 109.753L36.51 106.763L39.5 103.773L42.49 100.783L45.48 97.7925L48.47 94.8025L51.46 91.8125L54.45 88.8225L57.44 85.8325L60.43 82.8425L63.42 79.8525L66.41 76.8625L69.4 73.8725L72.39 70.8825L75.38 67.8925L78.37 64.9025L79.08 64.1925C78.94 64.1525 78.79 64.1125 78.65 64.0725L77.65 65.0725L74.66 68.0625L71.67 71.0525L68.68 74.0425L65.69 77.0325L62.7 80.0225L59.71 83.0125L56.72 86.0025L53.73 88.9925L50.74 91.9825L47.75 94.9725L44.76 97.9625L41.77 100.953L38.78 103.943L35.79 106.933L32.8 109.923L29.81 112.913L26.82 115.903L23.83 118.893L22.71 120.013C22.75 120.153 22.79 120.303 22.83 120.443L24.54 118.733L24.55 118.723Z" fill="#9A8CF3"/>
<path d="M24.38 124.863L24.55 124.693L27.54 121.703L30.53 118.713L36.28 112.963L36.5 112.743L39.49 109.753L42.48 106.763L45.47 103.773L48.46 100.783L51.45 97.7925L54.44 94.8025L57.43 91.8125L60.42 88.8225L63.41 85.8325L66.4 82.8425L69.39 79.8525L72.38 76.8625L75.37 73.8725L78.36 70.8825L81.35 67.8925L83.51 65.7325C83.38 65.6825 83.25 65.6225 83.12 65.5725L80.64 68.0525L77.65 71.0425L74.66 74.0325L71.67 77.0225L68.68 80.0125L65.69 83.0025L62.7 85.9925L59.71 88.9825L56.72 91.9725L53.73 94.9625L50.74 97.9525L47.75 100.943L44.76 103.933L41.77 106.923L38.78 109.913L35.79 112.903L32.8 115.893L29.81 118.883L26.82 121.873L24.22 124.473C24.27 124.603 24.33 124.733 24.38 124.863Z" fill="#9A8CF3"/>
<path d="M21.5599 103.793L24.5499 100.803L27.5399 97.8125L30.5299 94.8225L33.5199 91.8325L36.5099 88.8425L39.4999 85.8525L42.4899 82.8625L45.4799 79.8725L48.4699 76.8825L51.4599 73.8925L54.4499 70.9025L57.4399 67.9125L60.4299 64.9225L62.7899 62.5625C62.5899 62.5825 62.3899 62.6025 62.1899 62.6125L59.7199 65.0825L56.7299 68.0725L53.7399 71.0625L50.7499 74.0525L47.7599 77.0425L44.7699 80.0325L41.7799 83.0225L38.7899 86.0125L35.7999 89.0025L32.8099 91.9925L29.8199 94.9825L26.8299 97.9725L23.8399 100.963L21.2399 103.562C21.2199 103.763 21.1999 103.963 21.1899 104.163L21.5699 103.783L21.5599 103.793Z" fill="#9A8CF3"/>
<path d="M120.8 156.973C120.8 158.673 119.43 160.043 117.73 160.043C116.03 160.043 114.66 158.673 114.66 156.973C114.66 155.273 116.03 153.903 117.73 153.903C119.43 153.903 120.8 155.273 120.8 156.973Z" stroke="black" stroke-linecap="round" stroke-linejoin="round"/>
<path d="M514.22 153.903C514.22 157.293 511.47 160.043 508.08 160.043C504.69 160.043 501.94 157.293 501.94 153.903C501.94 150.513 504.69 147.763 508.08 147.763C511.47 147.763 514.22 150.513 514.22 153.903Z" stroke="black" stroke-linecap="round" stroke-linejoin="round"/>
<path d="M192.75 71.8025L176.98 53.0325H192.75V71.8025Z" stroke="#9A8CF3" stroke-linecap="round" stroke-linejoin="round"/>
<path d="M122.45 53.0225V3.72253H192.75V41.7825V53.0225V53.0325H176.98L176.97 53.0225H122.45Z" stroke="black" stroke-linecap="round" stroke-linejoin="round"/>
<path d="M175.68 21.1625H135.36" stroke="black" stroke-linecap="round" stroke-linejoin="round"/>
<path d="M175.68 35.9426H145.31" stroke="black" stroke-linecap="round" stroke-linejoin="round"/>
<path d="M365.99 176.923L390.11 148.213H365.99V176.923Z" stroke="#9A8CF3" stroke-linecap="round" stroke-linejoin="round"/>
<path d="M473.5 148.202V72.8125H365.99V131.012V148.202V148.213H390.11L390.12 148.202H473.5Z" stroke="black" stroke-linecap="round" stroke-linejoin="round"/>
<path d="M392.09 99.4725H453.77" stroke="black" stroke-linecap="round" stroke-linejoin="round"/>
<path d="M392.09 122.083H438.54" stroke="black" stroke-linecap="round" stroke-linejoin="round"/>
<path d="M237.52 125.273L170.86 139.783C169.37 140.103 167.85 139.393 167.13 138.043L136.76 70.3826C135.09 67.2426 131.19 66.0526 128.05 67.7126L126.05 68.7726L157.58 148.133L157.63 148.223C158.55 149.953 160.54 150.823 162.43 150.323L243.64 129.153C242.99 126.413 240.27 124.693 237.51 125.273H237.52Z" fill="#9A8CF3"/>
<path d="M128.95 242.883C128.95 242.883 123.51 254.133 119.47 256.693L108.38 259.323C103.17 259.943 101.43 263.703 101.43 263.703L130.74 277.263L144.84 249.743L128.96 242.883H128.95Z" fill="black"/>
<path d="M280.83 145.143C280.83 145.143 211.04 147.763 178.3 152.733C168.83 154.173 160.64 160.113 156.24 168.623L117.73 243.033L151.84 260.973L191.34 189.473L263.16 187.333L280.83 145.133V145.143Z" fill="white" stroke="black" stroke-linecap="round" stroke-linejoin="round"/>
<path d="M283.57 128.233C282.66 131.263 281.28 134.153 279.32 136.643C262.98 157.393 229.1 132.033 201.41 132.243C197.59 132.273 194.2 132.343 193.38 133.573C192 135.633 190.37 138.603 189.37 138.523C188.22 138.423 190.02 134.383 191.04 131.343C191.04 131.343 187.63 139.753 186.38 139.293C184.87 138.733 188.72 129.153 188.72 129.153C188.72 129.153 183.82 138.963 182.56 137.443C181.3 135.923 186.63 127.193 186.63 127.193C186.63 127.193 181.59 134.973 179.97 134.193C178.66 133.553 182.93 127.633 187.32 122.943C189.92 120.173 193.3 118.263 197.04 117.553C200.61 116.873 205.86 116.453 213.36 117.003C213.36 117.003 241.34 120.123 264.64 123.913L273.67 82.1325C274.78 76.9925 278.67 72.7825 283.8 71.6025C287.81 70.6825 292.32 71.0925 295.28 75.7625C297.38 79.0825 297.73 83.2125 296.55 86.9625L283.57 128.253V128.233Z" fill="white" stroke="black" stroke-linecap="round" stroke-linejoin="round"/>
<path d="M195.5 259.492C195.5 259.492 203.17 273.583 202.78 278.353L198.21 288.802C195.57 293.342 197.53 296.983 197.53 296.983L225.99 281.723L212.44 253.812L195.49 259.483L195.5 259.492Z" fill="black"/>
<path d="M287.85 136.293C287.85 136.293 190.35 130.523 162.26 156.973C139.62 178.293 189.55 269.903 189.55 269.903L225.08 254.943L196.2 190.373L279.17 189.293C279.17 189.293 312.9 179.653 304.22 136.293H287.84H287.85Z" fill="white" stroke="black" stroke-linecap="round" stroke-linejoin="round"/>
<path d="M336.92 69.0825C336.92 69.0825 339 58.4125 326.97 54.0425C316.2 50.1325 315.2 39.0525 315.2 39.0525C315.2 39.0525 311.76 30.3825 302.05 30.9325C292.34 31.4725 297.22 15.0225 280.68 11.7525C278.2 11.2625 275.91 12.2525 273.91 13.9225C267.77 19.0425 266.77 28.1125 271.15 34.7925L293.66 69.0725H336.92V69.0825Z" fill="black" stroke="black" stroke-linecap="round" stroke-linejoin="round"/>
<path d="M274.45 78.2926L263.84 51.8426L273.08 38.7426L295.86 72.3226L274.45 78.2926Z" fill="white" stroke="black" stroke-linecap="round" stroke-linejoin="round"/>
<path d="M267.95 60.3325L272.57 52.9025L265.69 54.8425L267.95 60.3325Z" fill="black" stroke="black" stroke-linecap="round" stroke-linejoin="round"/>
<path d="M291.04 20.4625C296.73 31.5025 286.87 47.9125 275.14 53.9625C263.41 60.0125 254.08 56.0725 249.65 44.4725C245.52 33.6425 247.77 17.4825 259.49 11.4325C271.22 5.38254 285.34 9.42255 291.04 20.4625Z" fill="white" stroke="black" stroke-linecap="round" stroke-linejoin="round"/>
<path d="M292.2 23.5625C288.48 11.8825 276.68 6.18255 263.96 9.70255C253.95 12.4725 247.5 22.2525 246.82 32.1225C246.96 32.1625 254.9 31.9125 258.29 23.1125C258.29 23.1125 259.23 37.2725 274.17 34.5225L280.81 50.1326C289.67 46.0326 296.33 36.4925 292.21 23.5625H292.2Z" fill="black" stroke="black" stroke-linecap="round" stroke-linejoin="round"/>
<path d="M261.23 48.3825C261.23 48.3825 264.44 48.1425 264.95 44.5325Z" fill="white"/>
<path d="M261.23 48.3825C261.23 48.3825 264.44 48.1425 264.95 44.5325" stroke="black" stroke-linecap="round" stroke-linejoin="round"/>
<path d="M275.81 45.1725C277.23 44.7625 278.57 43.7925 279.49 42.3625C281.34 39.5025 280.82 35.8925 278.34 34.2825C276.65 33.1925 274.89 33.5825 273.36 34.8425" fill="white"/>
<path d="M275.81 45.1725C277.23 44.7625 278.57 43.7925 279.49 42.3625C281.34 39.5025 280.82 35.8925 278.34 34.2825C276.65 33.1925 274.89 33.5825 273.36 34.8425" stroke="black" stroke-linecap="round" stroke-linejoin="round"/>
<path d="M273.91 41.4625C273.91 41.4625 274.6 38.6925 277.04 39.2125Z" fill="white"/>
<path d="M273.91 41.4625C273.91 41.4625 274.6 38.6925 277.04 39.2125" stroke="black" stroke-linecap="round" stroke-linejoin="round"/>
<path d="M282.41 9.09255C282.65 13.3226 286.27 16.5526 290.49 16.3126C294.72 16.0726 297.95 12.4526 297.71 8.23255C297.47 4.00255 293.85 0.772554 289.63 1.01255C285.4 1.25255 282.17 4.87255 282.41 9.09255Z" fill="black" stroke="black" stroke-linecap="round" stroke-linejoin="round"/>
<path d="M269.13 70.1525L291.7 62.0925C291.7 62.0925 318.76 107.013 319.73 136.883C319.73 136.883 287.85 136.293 260.4 135.983L269.13 70.1425V70.1525Z" fill="black"/>
<mask id="mask1_318_3" style="mask-type:luminance" maskUnits="userSpaceOnUse" x="260" y="62" width="60" height="75">
<path d="M269.13 70.1525L291.7 62.0925C291.7 62.0925 318.76 107.013 319.73 136.883C319.73 136.883 287.85 136.293 260.4 135.983L269.13 70.1425V70.1525Z" fill="white"/>
</mask>
<g mask="url(#mask1_318_3)">
<path d="M274.65 83.3225H283.74" stroke="white" stroke-linecap="round" stroke-linejoin="round"/>
<path d="M279.2 74.2325L287.67 70.7125" stroke="white" stroke-linecap="round" stroke-linejoin="round"/>
<path d="M293.46 73.4025V83.3225" stroke="white" stroke-linecap="round" stroke-linejoin="round"/>
<path d="M289.12 95.3025L295.11 89.1025" stroke="white" stroke-linecap="round" stroke-linejoin="round"/>
<path d="M277.13 94.0625L276.1 101.503" stroke="white" stroke-linecap="round" stroke-linejoin="round"/>
<path d="M284.78 104.403L293.46 106.053" stroke="white" stroke-linecap="round" stroke-linejoin="round"/>
<path d="M300.69 105.223L306.47 99.4425" stroke="white" stroke-linecap="round" stroke-linejoin="round"/>
<path d="M289.12 112.872L295.11 117.622" stroke="white" stroke-linecap="round" stroke-linejoin="round"/>
<path d="M295.11 127.682H304.2" stroke="white" stroke-linecap="round" stroke-linejoin="round"/>
<path d="M299.66 118.583L308.13 115.073" stroke="white" stroke-linecap="round" stroke-linejoin="round"/>
<path d="M313.91 117.763V127.683" stroke="white" stroke-linecap="round" stroke-linejoin="round"/>
<path d="M309.57 139.663L315.57 133.463" stroke="white" stroke-linecap="round" stroke-linejoin="round"/>
<path d="M254.23 108.843H263.32" stroke="white" stroke-linecap="round" stroke-linejoin="round"/>
<path d="M258.77 99.7525L267.24 96.2325" stroke="white" stroke-linecap="round" stroke-linejoin="round"/>
<path d="M268.69 120.833L274.68 114.633" stroke="white" stroke-linecap="round" stroke-linejoin="round"/>
<path d="M264.35 129.923L273.03 131.573" stroke="white" stroke-linecap="round" stroke-linejoin="round"/>
<path d="M280.26 130.753L286.05 124.963" stroke="white" stroke-linecap="round" stroke-linejoin="round"/>
</g>
<path d="M257.95 140.793C256.13 143.383 253.92 145.703 251.28 147.443C229.25 162.003 205.04 127.303 178.69 118.803C175.05 117.633 171.81 116.633 170.65 117.543C168.69 119.073 166.21 121.383 165.29 120.983C164.23 120.533 167.21 117.253 169.13 114.693C169.13 114.693 163.25 121.603 162.21 120.783C160.95 119.773 167.61 111.893 167.61 111.893C167.61 111.893 159.88 119.663 159.16 117.823C158.44 115.983 166.24 109.363 166.24 109.363C166.24 109.363 159.01 115.163 157.72 113.913C156.67 112.893 162.59 108.613 168.23 105.543C171.57 103.723 175.38 102.973 179.15 103.473C182.75 103.953 187.87 105.193 194.82 108.073C194.82 108.073 220.41 119.823 241.33 130.733L263.03 93.9026C265.7 89.3626 270.72 86.6026 275.96 87.0926C280.06 87.4726 284.21 89.2826 285.55 94.6526C286.5 98.4626 285.53 102.493 283.24 105.683L257.96 140.803L257.95 140.793Z" fill="white" stroke="black" stroke-linecap="round" stroke-linejoin="round"/>
<path d="M242.21 120.813L267.27 138.523C267.27 138.523 307.26 88.1626 288.79 76.0026C271.36 64.5226 242.21 120.813 242.21 120.813Z" fill="black" stroke="black" stroke-linecap="round" stroke-linejoin="round"/>
<mask id="mask2_318_3" style="mask-type:luminance" maskUnits="userSpaceOnUse" x="242" y="74" width="52" height="65">
<path d="M242.21 120.813L267.27 138.523C267.27 138.523 307.26 88.1626 288.79 76.0026C271.36 64.5226 242.21 120.813 242.21 120.813Z" fill="white"/>
</mask>
<g mask="url(#mask2_318_3)">
<path d="M274.65 83.3226H283.74" stroke="white" stroke-linecap="round" stroke-linejoin="round"/>
<path d="M279.2 74.2326L287.67 70.7126" stroke="white" stroke-linecap="round" stroke-linejoin="round"/>
<path d="M293.46 73.4026V83.3226" stroke="white" stroke-linecap="round" stroke-linejoin="round"/>
<path d="M289.12 95.3026L295.11 89.1026" stroke="white" stroke-linecap="round" stroke-linejoin="round"/>
<path d="M277.13 94.0626L276.1 101.503" stroke="white" stroke-linecap="round" stroke-linejoin="round"/>
<path d="M284.78 104.403L293.46 106.053" stroke="white" stroke-linecap="round" stroke-linejoin="round"/>
<path d="M289.12 112.873L295.11 117.623" stroke="white" stroke-linecap="round" stroke-linejoin="round"/>
<path d="M254.23 108.843H263.32" stroke="white" stroke-linecap="round" stroke-linejoin="round"/>
<path d="M258.77 99.7526L267.24 96.2326" stroke="white" stroke-linecap="round" stroke-linejoin="round"/>
<path d="M268.69 120.833L274.68 114.633" stroke="white" stroke-linecap="round" stroke-linejoin="round"/>
<path d="M256.71 119.593L255.67 127.033" stroke="white" stroke-linecap="round" stroke-linejoin="round"/>
<path d="M264.35 129.923L273.03 131.573" stroke="white" stroke-linecap="round" stroke-linejoin="round"/>
<path d="M280.26 130.753L286.05 124.963" stroke="white" stroke-linecap="round" stroke-linejoin="round"/>
<path d="M268.69 138.393L274.68 143.143" stroke="white" stroke-linecap="round" stroke-linejoin="round"/>
</g>
<path d="M80.3501 33.0325C80.5501 36.6525 76.7901 39.9325 73.2301 39.2425C69.0901 38.4325 67.0801 33.8025 63.8701 31.0725C62.4401 29.8525 60.5201 28.9625 58.7001 29.4425C57.8501 29.6625 57.1001 30.1625 56.4401 30.7225C53.9501 32.8425 52.5301 35.9325 50.8001 38.7125C49.0701 41.4925 46.6501 44.2025 43.4201 44.7325C40.2801 45.2425 37.1201 43.4725 35.0901 41.0125C33.0701 38.5525 31.9701 35.4825 30.9001 32.4825" stroke="black" stroke-linecap="round" stroke-linejoin="round"/>
<path d="M45.4301 272.213C38.6301 270.833 32.7201 265.663 30.4501 259.093C28.1801 252.533 29.64 244.813 34.14 239.533C35.64 237.773 37.6101 236.203 39.9101 235.983C42.2201 235.763 44.7901 237.383 44.9001 239.693C44.9401 240.593 44.6301 241.483 44.1801 242.263C40.8101 248.203 31.0501 247.173 26.8601 241.783C22.6801 236.393 22.7901 228.833 24.0801 222.133C28.0401 201.713 41.67 183.383 60.1 173.723" stroke="black" stroke-linecap="round" stroke-linejoin="round"/>
<path d="M44.28 170.753C47.25 171.243 60.11 173.723 60.11 173.723V191.043" stroke="black" stroke-linecap="round" stroke-linejoin="round"/>
<path d="M397 186.532C408.6 210.372 439.12 223.042 464.19 214.432C467.98 213.132 471.72 211.342 474.41 208.382C477.1 205.422 478.55 201.082 477.24 197.292C475.33 191.762 467.91 189.522 462.59 191.942C457.26 194.372 454.13 200.222 453.48 206.042C452.01 219.312 462 231.862 474.29 237.052C486.58 242.242 500.57 241.482 513.72 239.192" stroke="black" stroke-linecap="round" stroke-linejoin="round"/>
<path d="M496.18 229.122L513.73 239.202L501.12 254.672" stroke="black" stroke-linecap="round" stroke-linejoin="round"/>
<path d="M335.56 28.6225C339.26 34.7925 348.46 35.6125 354.76 32.1325C361.06 28.6525 365.01 22.1325 368.26 15.7125C373.35 5.65251 358.69 9.50251 364.59 23.7225C367.02 29.5825 371.39 35.6025 377.71 36.1525C386.71 36.9325 392.15 26.9425 397.43 19.6125C401.04 14.6025 405.41 4.50251 411.24 3.52251C420.05 2.04251 420.36 14.8325 421.31 18.3425C422.26 21.8525 424.55 25.5625 428.16 25.9925C432.51 26.5025 435.64 22.2125 438.78 19.1625C445.78 12.3725 457.25 10.7325 465.87 15.2825" stroke="black" stroke-linecap="round" stroke-linejoin="round"/>
</g>
<defs>
<clipPath id="clip0_318_3">
<rect width="550" height="306" fill="white"/>
</clipPath>
</defs>
</svg>
