<?xml version="1.0" encoding="utf-8"?>
<!-- Generator: Adobe Illustrator 27.6.1, SVG Export Plug-In . SVG Version: 6.00 Build 0)  -->
<svg version="1.1" id="Слой_1" xmlns="http://www.w3.org/2000/svg" xmlns:xlink="http://www.w3.org/1999/xlink" x="0px" y="0px"
	 viewBox="0 0 92 73" style="enable-background:new 0 0 92 73;" xml:space="preserve">
<style type="text/css">
	.st0{fill-rule:evenodd;clip-rule:evenodd;fill:#FFFFFF;stroke:#1D1D1B;stroke-miterlimit:10;}
</style>
<path class="st0" d="M19.1,0c-5.2,0-9.1,4.6-9,9.5c0.2,4.8,0,10.9-1.6,16C7,30.6,4.3,33.8,0,34.2v4.6c4.3,0.4,7,3.6,8.5,8.7
	c1.6,5,1.8,11.2,1.6,16c-0.2,5,3.7,9.5,9,9.5h53.8c5.2,0,9.1-4.6,9-9.5c-0.2-4.8,0-10.9,1.6-16c1.6-5.1,4.2-8.3,8.5-8.7v-4.6
	c-4.3-0.4-7-3.6-8.5-8.7c-1.6-5-1.8-11.2-1.6-16c0.2-5-3.7-9.5-9-9.5H19.1L19.1,0z M62.4,44.9c0,6.8-5.1,11-13.6,11H34.3
	c-0.4,0-0.8-0.2-1.1-0.5c-0.3-0.3-0.5-0.7-0.5-1.1V18.6c0-0.4,0.2-0.8,0.5-1.1c0.3-0.3,0.7-0.5,1.1-0.5h14.4
	c7.1,0,11.7,3.8,11.7,9.7c0,4.1-3.1,7.8-7.1,8.4v0.2C58.7,36,62.4,39.8,62.4,44.9z M47.2,22h-8.2v11.6h6.9c5.4,0,8.3-2.2,8.3-6
	C54.2,24,51.7,22,47.2,22z M38.9,38.2V51h8.5c5.6,0,8.5-2.2,8.5-6.4c0-4.2-3-6.4-8.9-6.4L38.9,38.2z"/>
</svg>
