<svg width="216" height="216" viewBox="0 0 216 216" fill="none" xmlns="http://www.w3.org/2000/svg">
<path d="M188.12 85.6789C182.991 85.6789 178.833 89.8369 178.833 94.9657V173.809C178.833 186.831 168.238 197.426 155.215 197.426H42.66C29.6368 197.426 19.0424 186.831 19.0424 173.809V62.1678C19.0424 49.1452 29.6374 38.5502 42.66 38.5502H124.128C129.257 38.5502 133.415 34.3922 133.415 29.2634C133.415 24.1346 129.257 19.9766 124.128 19.9766H42.66C19.3953 19.9766 0.46875 38.9037 0.46875 62.1678V173.808C0.46875 197.072 19.3959 215.999 42.66 215.999H155.215C178.479 215.999 197.406 197.072 197.406 173.808V94.9657C197.407 89.8369 193.249 85.6789 188.12 85.6789Z" fill="black"/>
<path d="M186.09 48.9038C188.637 51.4422 188.637 55.5578 186.09 58.0962L94.7855 149.096C93.5624 150.315 91.9036 151 90.1739 151C88.4442 151 86.7854 150.315 85.5623 149.096L39.9102 103.596C37.3633 101.058 37.3633 96.9422 39.9102 94.4038C42.4571 91.8654 46.5864 91.8654 49.1333 94.4038L90.1739 135.308L176.867 48.9038C179.414 46.3654 183.543 46.3654 186.09 48.9038Z" fill="black"/>
</svg>
